<svg width="600" height="600" viewBox="0 0 600 600" fill="none" xmlns="http://www.w3.org/2000/svg">
<path d="M600 458.88H0V459.18H600V458.88Z" fill="#EBEBEB"/>
<path d="M539.88 478.188H500.136V478.488H539.88V478.188Z" fill="#EBEBEB"/>
<path d="M397.464 481.452H387.036V481.752H397.464V481.452Z" fill="#EBEBEB"/>
<path d="M498.936 467.052H475.908V467.352H498.936V467.052Z" fill="#EBEBEB"/>
<path d="M114.78 469.068H62.952V469.368H114.78V469.068Z" fill="#EBEBEB"/>
<path d="M133.068 469.068H125.472V469.368H133.068V469.068Z" fill="#EBEBEB"/>
<path d="M270.18 474.132H157.764V474.432H270.18V474.132Z" fill="#EBEBEB"/>
<path d="M284.4 405.36H52.692C50.8768 405.357 49.1371 404.634 47.8547 403.349C46.5723 402.064 45.852 400.323 45.852 398.508V72.792C45.8678 70.9872 46.595 69.2616 47.8757 67.9899C49.1564 66.7181 50.8872 66.0031 52.692 66H284.4C286.217 66 287.96 66.7219 289.245 68.0069C290.53 69.2919 291.252 71.0347 291.252 72.852V398.508C291.252 400.325 290.53 402.068 289.245 403.353C287.96 404.638 286.217 405.36 284.4 405.36ZM52.692 66.24C50.9564 66.2432 49.2929 66.9349 48.0668 68.1633C46.8406 69.3917 46.152 71.0564 46.152 72.792V398.508C46.152 400.244 46.8406 401.908 48.0668 403.137C49.2929 404.365 50.9564 405.057 52.692 405.06H284.4C286.137 405.057 287.801 404.366 289.029 403.137C290.258 401.909 290.949 400.245 290.952 398.508V72.792C290.949 71.0553 290.258 69.3906 289.029 68.1625C287.801 66.9345 286.137 66.2432 284.4 66.24H52.692Z" fill="#EBEBEB"/>
<path d="M543.972 405.36H312.252C310.436 405.357 308.695 404.634 307.41 403.35C306.126 402.065 305.403 400.324 305.4 398.508V72.792C305.419 70.9861 306.149 69.2605 307.431 67.9891C308.714 66.7177 310.446 66.0031 312.252 66H543.972C545.775 66.0062 547.502 66.7227 548.781 67.9941C550.059 69.2654 550.784 70.9893 550.8 72.792V398.508C550.8 400.321 550.081 402.06 548.802 403.345C547.522 404.629 545.785 405.354 543.972 405.36ZM312.252 66.24C310.515 66.2432 308.851 66.9345 307.623 68.1625C306.394 69.3906 305.703 71.0553 305.7 72.792V398.508C305.703 400.245 306.394 401.909 307.623 403.137C308.851 404.366 310.515 405.057 312.252 405.06H543.972C545.709 405.057 547.373 404.366 548.601 403.137C549.829 401.909 550.521 400.245 550.524 398.508V72.792C550.521 71.0553 549.829 69.3906 548.601 68.1625C547.373 66.9345 545.709 66.2432 543.972 66.24H312.252Z" fill="#EBEBEB"/>
<path d="M323.376 458.88H528.012L542.532 99.816H337.896L323.376 458.88Z" fill="#E6E6E6"/>
<path d="M318.372 458.88H523.008L537.528 99.816H332.892L318.372 458.88Z" fill="#F0F0F0"/>
<path d="M513.204 448.668L526.908 110.028H342.696L329.004 448.668H513.204Z" fill="#FAFAFA"/>
<path d="M124.068 169.512L134.772 195.912C134.46 272.244 137.916 276.648 137.94 289.776H110.916C109.944 225.876 119.412 240.24 124.068 169.512Z" fill="#EBEBEB"/>
<path d="M139.2 247.464C117.396 187.56 67.308 206.112 69.6 228C71.892 249.888 151.668 281.916 139.2 247.464Z" fill="#EBEBEB"/>
<path d="M130.932 282C119.052 243.396 87.492 249.696 87.492 267.432C87.492 285.168 137.76 304.212 130.932 282Z" fill="#EBEBEB"/>
<path d="M130.08 212.328C111.444 160.728 65.028 167.82 68.772 189.6C72.516 211.38 140.796 242.004 130.08 212.328Z" fill="#EBEBEB"/>
<path d="M130.212 189.18C131.94 154.02 97.116 139.548 99.528 160.56C101.94 181.572 129.216 209.4 130.212 189.18Z" fill="#EBEBEB"/>
<path d="M127.608 225.18C134.964 181.86 179.58 165.372 174.6 189.9C169.62 214.428 123.384 250.092 127.608 225.18Z" fill="#EBEBEB"/>
<path d="M123.852 200.688C115.188 155.256 155.268 135.072 156.42 156.972C157.572 178.872 128.832 226.8 123.852 200.688Z" fill="#EBEBEB"/>
<path d="M120.372 252C138.084 208.224 176.004 219.084 172.176 239.004C168.348 258.924 110.184 277.2 120.372 252Z" fill="#EBEBEB"/>
<path d="M129.12 282.576C128.724 254.328 154.32 247.032 154.656 263.376C154.992 279.72 129.336 298.8 129.12 282.576Z" fill="#EBEBEB"/>
<path d="M121.284 316.8C114.555 316.82 108.022 314.539 102.769 310.335C97.5148 306.131 93.8563 300.257 92.4 293.688C91.7002 290.166 90.6923 286.713 89.388 283.368L89.16 282.828H153.384L153.156 283.368C151.852 286.713 150.844 290.166 150.144 293.688C148.691 300.254 145.036 306.126 139.787 310.33C134.538 314.534 128.009 316.817 121.284 316.8Z" fill="#E0E0E0"/>
<path d="M87.792 316.764H59.292V458.88H87.792V316.764Z" fill="#E6E6E6"/>
<path d="M67.836 458.88H59.292V441.756H76.788L67.836 458.88Z" fill="#F0F0F0"/>
<path d="M283.128 316.764H254.628V458.88H283.128V316.764Z" fill="#E6E6E6"/>
<path d="M262.092 316.764H59.292V453.18H262.092V316.764Z" fill="#F0F0F0"/>
<path d="M253.548 458.88H262.092V441.756H244.584L253.548 458.88Z" fill="#F0F0F0"/>
<path d="M255.456 326.364H65.916V380.952H255.456V326.364Z" fill="#E6E6E6"/>
<path d="M117.108 343.32H198.516C206.856 343.32 214.824 336.588 220.56 324.696H95.076C100.8 336.588 108.78 343.32 117.108 343.32Z" fill="#F0F0F0"/>
<path d="M255.456 389.772H65.916V444.36H255.456V389.772Z" fill="#E6E6E6"/>
<path d="M117.108 406.728H198.516C206.856 406.728 214.824 399.996 220.56 388.104H95.076C100.8 399.996 108.78 406.728 117.108 406.728Z" fill="#F0F0F0"/>
<path d="M300 513.072C428.499 513.072 532.668 506.99 532.668 499.488C532.668 491.986 428.499 485.904 300 485.904C171.501 485.904 67.332 491.986 67.332 499.488C67.332 506.99 171.501 513.072 300 513.072Z" fill="#F5F5F5"/>
<path d="M485.844 378.72H175.332C173.74 378.744 172.16 378.43 170.698 377.799C169.235 377.168 167.923 376.235 166.847 375.061C165.771 373.886 164.956 372.497 164.456 370.985C163.956 369.473 163.781 367.872 163.944 366.288L182.592 144.288C182.929 140.926 184.486 137.804 186.97 135.514C189.453 133.223 192.69 131.921 196.068 131.856H506.58C508.172 131.835 509.751 132.15 511.213 132.781C512.675 133.412 513.988 134.345 515.064 135.519C516.14 136.693 516.956 138.081 517.459 139.592C517.961 141.103 518.139 142.703 517.98 144.288L499.332 366.288C498.99 369.65 497.429 372.77 494.944 375.06C492.46 377.351 489.223 378.652 485.844 378.72Z" fill="#F5520A"/>
<path opacity="0.7" d="M485.844 378.72H175.332C173.74 378.744 172.16 378.43 170.698 377.799C169.235 377.168 167.923 376.235 166.847 375.061C165.771 373.886 164.956 372.497 164.456 370.985C163.956 369.473 163.781 367.872 163.944 366.288L182.592 144.288C182.929 140.926 184.486 137.804 186.97 135.514C189.453 133.223 192.69 131.921 196.068 131.856H506.58C508.172 131.835 509.751 132.15 511.213 132.781C512.675 133.412 513.988 134.345 515.064 135.519C516.14 136.693 516.956 138.081 517.459 139.592C517.961 141.103 518.139 142.703 517.98 144.288L499.332 366.288C498.99 369.65 497.429 372.77 494.944 375.06C492.46 377.351 489.223 378.652 485.844 378.72Z" fill="white"/>
<path d="M175.74 373.92C174.761 373.937 173.79 373.746 172.891 373.36C171.992 372.974 171.184 372.401 170.523 371.68C169.862 370.958 169.361 370.104 169.054 369.175C168.748 368.245 168.642 367.261 168.744 366.288L187.392 144.288C187.597 142.222 188.554 140.304 190.08 138.897C191.607 137.49 193.597 136.693 195.672 136.656H506.172C507.151 136.639 508.123 136.83 509.023 137.216C509.922 137.602 510.73 138.175 511.392 138.896C512.055 139.617 512.557 140.471 512.865 141.4C513.173 142.33 513.28 143.314 513.18 144.288L494.532 366.288C494.327 368.354 493.37 370.272 491.844 371.679C490.317 373.086 488.327 373.883 486.252 373.92H175.74Z" fill="white"/>
<path d="M204.732 152.124H211.2L211.056 153.816H208.896L208.452 158.988H206.328L206.772 153.816H204.6L204.732 152.124Z" fill="#F5520A"/>
<path d="M215.244 157.86H212.844L212.412 158.988H210.24L213.408 152.124H215.724L217.728 158.988H215.496L215.244 157.86ZM214.92 156.372L214.368 153.9L213.42 156.372H214.92Z" fill="#F5520A"/>
<path d="M218.208 156.72L220.236 156.588C220.238 156.853 220.308 157.114 220.44 157.344C220.543 157.483 220.68 157.595 220.837 157.668C220.994 157.741 221.167 157.774 221.34 157.764C221.598 157.781 221.854 157.704 222.06 157.548C222.14 157.491 222.207 157.418 222.257 157.333C222.306 157.248 222.337 157.154 222.348 157.056C222.359 156.966 222.347 156.875 222.313 156.792C222.28 156.708 222.226 156.634 222.156 156.576C221.84 156.362 221.478 156.226 221.1 156.18C220.4 156.063 219.741 155.774 219.18 155.34C219 155.172 218.862 154.963 218.776 154.732C218.691 154.501 218.661 154.253 218.688 154.008C218.728 153.646 218.865 153.302 219.084 153.012C219.339 152.68 219.679 152.423 220.068 152.268C220.618 152.07 221.2 151.98 221.784 152.004C222.476 151.95 223.167 152.122 223.752 152.496C223.979 152.685 224.159 152.925 224.278 153.195C224.396 153.466 224.451 153.761 224.436 154.056L222.432 154.164C222.428 153.913 222.329 153.673 222.156 153.492C221.957 153.341 221.709 153.268 221.46 153.288C221.26 153.274 221.061 153.329 220.896 153.444C220.833 153.486 220.78 153.54 220.741 153.605C220.701 153.669 220.677 153.741 220.668 153.816C220.666 153.873 220.676 153.929 220.699 153.981C220.722 154.033 220.757 154.079 220.8 154.116C221.007 154.257 221.246 154.344 221.496 154.368C222.166 154.493 222.819 154.698 223.44 154.98C223.78 155.147 224.064 155.409 224.256 155.736C224.414 156.051 224.477 156.406 224.436 156.756C224.392 157.191 224.23 157.606 223.968 157.956C223.688 158.331 223.31 158.621 222.876 158.796C222.341 159.003 221.77 159.101 221.196 159.084C220.771 159.139 220.34 159.107 219.928 158.992C219.515 158.876 219.131 158.679 218.796 158.412C218.389 157.945 218.178 157.339 218.208 156.72Z" fill="#F5520A"/>
<path d="M225.912 152.124H228L227.784 154.716L230.184 152.124H233.004L230.4 154.716L232.656 158.988H230.052L228.852 156.168L227.652 157.368L227.508 159.036H225.384L225.912 152.124Z" fill="#F5520A"/>
<path d="M237.084 152.124H240.612C240.914 152.097 241.218 152.13 241.507 152.223C241.796 152.316 242.063 152.466 242.292 152.664C242.478 152.875 242.614 153.124 242.69 153.394C242.767 153.664 242.783 153.947 242.736 154.224C242.705 154.845 242.434 155.431 241.98 155.856C241.421 156.283 240.726 156.492 240.024 156.444H238.824L238.608 158.988H236.472L237.084 152.124ZM238.968 155.052H239.496C239.804 155.078 240.112 155.002 240.372 154.836C240.458 154.77 240.528 154.687 240.58 154.592C240.632 154.497 240.663 154.392 240.672 154.284C240.687 154.089 240.627 153.896 240.504 153.744C240.395 153.653 240.268 153.586 240.132 153.546C239.996 153.507 239.853 153.497 239.712 153.516H239.1L238.968 155.052Z" fill="#F5520A"/>
<path d="M246.96 157.86H244.56L244.128 158.988H241.956L245.124 152.124H247.44L249.444 158.988H247.2L246.96 157.86ZM246.636 156.372L246.084 153.9L245.136 156.372H246.636Z" fill="#F5520A"/>
<path d="M250.692 152.124H252.672L254.94 155.916L255.264 152.124H257.268L256.692 158.988H254.688L252.432 155.22L252.108 158.988H250.116L250.692 152.124Z" fill="#F5520A"/>
<path d="M258.672 152.124H264.36L264.24 153.588H260.64L260.544 154.68H263.856L263.736 156.084H260.436L260.316 157.44H264L263.868 158.988H258.072L258.672 152.124Z" fill="#F5520A"/>
<path d="M265.608 152.124H267.732L267.3 157.296H270.612L270.468 158.988H265.032L265.608 152.124Z" fill="#F5520A"/>
<path opacity="0.1" d="M303.6 162.06H285.6C285.125 162.068 284.654 161.975 284.218 161.787C283.783 161.599 283.392 161.32 283.072 160.969C282.752 160.619 282.51 160.204 282.362 159.753C282.215 159.301 282.165 158.824 282.216 158.352L282.744 151.956C282.849 150.956 283.315 150.029 284.056 149.348C284.796 148.668 285.759 148.281 286.764 148.26H304.764C305.237 148.254 305.706 148.348 306.14 148.536C306.574 148.724 306.964 149.002 307.283 149.351C307.603 149.7 307.845 150.112 307.994 150.561C308.143 151.01 308.195 151.485 308.148 151.956L307.56 158.4C307.453 159.385 306.993 160.299 306.265 160.972C305.538 161.644 304.591 162.031 303.6 162.06Z" fill="#F5520A"/>
<path opacity="0.1" d="M488.472 160.908C491.925 160.908 494.724 158.335 494.724 155.16C494.724 151.985 491.925 149.412 488.472 149.412C485.019 149.412 482.22 151.985 482.22 155.16C482.22 158.335 485.019 160.908 488.472 160.908Z" fill="#F5520A"/>
<path opacity="0.1" d="M464.472 160.908C467.925 160.908 470.724 158.335 470.724 155.16C470.724 151.985 467.925 149.412 464.472 149.412C461.019 149.412 458.22 151.985 458.22 155.16C458.22 158.335 461.019 160.908 464.472 160.908Z" fill="#F5520A"/>
<path opacity="0.1" d="M440.472 160.908C443.925 160.908 446.724 158.335 446.724 155.16C446.724 151.985 443.925 149.412 440.472 149.412C437.019 149.412 434.22 151.985 434.22 155.16C434.22 158.335 437.019 160.908 440.472 160.908Z" fill="#F5520A"/>
<path opacity="0.1" d="M286.164 180.192H210.396C205.86 180.192 201.864 183.612 201.516 187.8L185.916 373.92H278.172L293.772 187.8C294.108 183.6 290.688 180.192 286.164 180.192Z" fill="#F5520A"/>
<path d="M283.812 184.8H211.968C210.338 184.838 208.778 185.467 207.579 186.572C206.38 187.676 205.624 189.179 205.452 190.8L201.852 233.88C201.774 234.646 201.859 235.419 202.101 236.149C202.344 236.879 202.738 237.55 203.259 238.117C203.779 238.684 204.413 239.134 205.12 239.438C205.827 239.742 206.591 239.892 207.36 239.88H279.192C280.824 239.85 282.389 239.223 283.589 238.117C284.79 237.012 285.544 235.504 285.708 233.88L289.308 190.8C289.382 190.036 289.295 189.266 289.052 188.538C288.808 187.81 288.415 187.142 287.897 186.576C287.378 186.01 286.747 185.559 286.043 185.253C285.339 184.948 284.579 184.793 283.812 184.8Z" fill="white"/>
<path d="M278.64 246.396H206.796C205.166 246.431 203.604 247.06 202.404 248.165C201.204 249.269 200.449 250.774 200.28 252.396L196.68 295.476C196.602 296.242 196.687 297.015 196.929 297.745C197.172 298.475 197.566 299.146 198.087 299.713C198.607 300.28 199.241 300.73 199.948 301.034C200.655 301.338 201.419 301.488 202.188 301.476H274.02C275.652 301.446 277.216 300.819 278.417 299.713C279.618 298.608 280.372 297.1 280.536 295.476L284.136 252.396C284.21 251.632 284.123 250.862 283.88 250.134C283.636 249.406 283.243 248.738 282.725 248.172C282.206 247.606 281.575 247.155 280.871 246.849C280.167 246.544 279.407 246.389 278.64 246.396Z" fill="white"/>
<path d="M273.468 308.004H201.6C199.969 308.037 198.406 308.665 197.205 309.77C196.005 310.875 195.251 312.381 195.084 314.004L191.484 357.084C191.406 357.85 191.491 358.623 191.733 359.353C191.976 360.083 192.37 360.754 192.891 361.321C193.411 361.888 194.045 362.338 194.752 362.642C195.459 362.946 196.223 363.096 196.992 363.084H268.8C270.431 363.052 271.994 362.424 273.195 361.318C274.395 360.213 275.149 358.707 275.316 357.084L278.916 314.004C278.993 313.244 278.91 312.475 278.671 311.749C278.432 311.023 278.043 310.356 277.529 309.79C277.016 309.224 276.388 308.772 275.689 308.465C274.989 308.157 274.232 308 273.468 308.004Z" fill="white"/>
<path opacity="0.5" d="M225.384 208.992H212.676C212.324 208.997 211.975 208.928 211.651 208.788C211.328 208.649 211.038 208.443 210.8 208.183C210.562 207.924 210.381 207.617 210.27 207.283C210.159 206.948 210.12 206.594 210.156 206.244L211.224 193.536C211.303 192.793 211.649 192.104 212.199 191.598C212.749 191.092 213.465 190.804 214.212 190.788H226.908C227.26 190.783 227.609 190.852 227.933 190.992C228.256 191.131 228.546 191.337 228.784 191.597C229.022 191.856 229.203 192.163 229.314 192.498C229.425 192.832 229.464 193.186 229.428 193.536L228.36 206.244C228.284 206.986 227.94 207.675 227.392 208.181C226.844 208.687 226.13 208.975 225.384 208.992Z" fill="#F5520A"/>
<path opacity="0.5" d="M279.66 218.892H210.396C210.23 218.893 210.066 218.859 209.913 218.792C209.761 218.726 209.624 218.629 209.512 218.507C209.399 218.385 209.313 218.242 209.258 218.085C209.204 217.928 209.183 217.761 209.196 217.596C209.231 217.245 209.393 216.918 209.651 216.677C209.91 216.436 210.247 216.298 210.6 216.288H279.864C280.031 216.287 280.197 216.322 280.35 216.388C280.503 216.455 280.64 216.554 280.753 216.677C280.866 216.8 280.952 216.945 281.006 217.104C281.059 217.262 281.079 217.43 281.064 217.596C281.026 217.945 280.863 218.269 280.605 218.507C280.347 218.746 280.011 218.882 279.66 218.892Z" fill="#F5520A"/>
<path opacity="0.2" d="M270.492 198.528H238.632C238.367 198.531 238.103 198.478 237.86 198.372C237.616 198.267 237.398 198.111 237.219 197.915C237.04 197.719 236.904 197.487 236.821 197.235C236.738 196.983 236.709 196.716 236.736 196.452C236.794 195.894 237.055 195.376 237.468 194.996C237.881 194.616 238.419 194.4 238.98 194.388H270.84C271.104 194.385 271.366 194.438 271.609 194.543C271.852 194.648 272.069 194.803 272.248 194.997C272.427 195.192 272.563 195.422 272.647 195.673C272.731 195.923 272.761 196.189 272.736 196.452C272.68 197.013 272.421 197.533 272.008 197.916C271.594 198.298 271.055 198.516 270.492 198.528Z" fill="#263238"/>
<path opacity="0.2" d="M257.316 205.392H238.056C237.792 205.395 237.53 205.342 237.287 205.237C237.045 205.132 236.827 204.977 236.648 204.783C236.469 204.588 236.333 204.358 236.249 204.107C236.165 203.857 236.135 203.591 236.16 203.328C236.215 202.769 236.473 202.25 236.884 201.868C237.295 201.486 237.831 201.267 238.392 201.252H257.664C257.929 201.249 258.193 201.302 258.436 201.408C258.68 201.513 258.898 201.669 259.077 201.865C259.256 202.061 259.392 202.293 259.475 202.545C259.558 202.797 259.587 203.064 259.56 203.328C259.502 203.886 259.241 204.404 258.828 204.784C258.415 205.164 257.877 205.38 257.316 205.392Z" fill="#263238"/>
<path opacity="0.5" d="M220.212 270.6H207.504C207.152 270.605 206.803 270.536 206.479 270.396C206.156 270.257 205.866 270.051 205.628 269.791C205.39 269.532 205.209 269.225 205.098 268.891C204.987 268.556 204.948 268.202 204.984 267.852L206.052 255.144C206.128 254.4 206.474 253.71 207.025 253.203C207.575 252.697 208.292 252.41 209.04 252.396H221.736C222.088 252.391 222.437 252.46 222.761 252.6C223.084 252.739 223.374 252.945 223.612 253.205C223.85 253.464 224.031 253.771 224.142 254.106C224.253 254.44 224.292 254.794 224.256 255.144L223.2 267.852C223.124 268.596 222.778 269.287 222.227 269.793C221.677 270.299 220.96 270.586 220.212 270.6Z" fill="#F5520A"/>
<path opacity="0.5" d="M274.488 280.5H205.2C205.033 280.501 204.867 280.466 204.714 280.4C204.561 280.333 204.424 280.234 204.311 280.111C204.198 279.988 204.112 279.843 204.058 279.684C204.005 279.526 203.985 279.358 204 279.192C204.038 278.843 204.201 278.519 204.459 278.281C204.717 278.042 205.053 277.906 205.404 277.896H274.668C274.834 277.895 274.998 277.929 275.151 277.996C275.303 278.062 275.44 278.159 275.552 278.281C275.665 278.403 275.751 278.546 275.806 278.703C275.86 278.86 275.881 279.027 275.868 279.192C275.834 279.54 275.675 279.863 275.422 280.103C275.168 280.344 274.837 280.484 274.488 280.5Z" fill="#F5520A"/>
<path opacity="0.2" d="M265.32 260.136H233.448C233.184 260.137 232.922 260.083 232.68 259.977C232.438 259.87 232.221 259.714 232.043 259.518C231.865 259.322 231.731 259.091 231.648 258.84C231.566 258.589 231.537 258.323 231.564 258.06C231.622 257.504 231.881 256.987 232.291 256.608C232.702 256.228 233.237 256.01 233.796 255.996H265.668C265.932 255.993 266.194 256.046 266.437 256.151C266.679 256.256 266.897 256.411 267.076 256.605C267.255 256.8 267.391 257.03 267.475 257.281C267.559 257.531 267.589 257.797 267.564 258.06C267.508 258.621 267.249 259.141 266.836 259.524C266.422 259.906 265.883 260.124 265.32 260.136Z" fill="#263238"/>
<path opacity="0.2" d="M252.144 267H232.872C232.608 267.003 232.347 266.95 232.105 266.845C231.862 266.74 231.645 266.585 231.468 266.39C231.29 266.195 231.155 265.965 231.072 265.714C230.99 265.464 230.961 265.198 230.988 264.936C231.043 264.377 231.301 263.858 231.712 263.476C232.123 263.094 232.659 262.875 233.22 262.86H252.492C252.757 262.857 253.021 262.91 253.264 263.016C253.508 263.121 253.726 263.277 253.905 263.473C254.084 263.669 254.22 263.901 254.303 264.153C254.386 264.405 254.415 264.672 254.388 264.936C254.33 265.494 254.069 266.012 253.656 266.392C253.243 266.772 252.705 266.988 252.144 267Z" fill="#263238"/>
<path d="M247.2 286.5H272.256C272.649 286.493 273.038 286.569 273.399 286.724C273.76 286.878 274.084 287.108 274.349 287.397C274.615 287.687 274.816 288.029 274.939 288.402C275.062 288.775 275.105 289.169 275.064 289.56L274.692 294.036C274.61 294.866 274.226 295.637 273.614 296.203C273.001 296.77 272.202 297.091 271.368 297.108H246.264C245.871 297.113 245.481 297.036 245.12 296.88C244.759 296.724 244.435 296.493 244.17 296.203C243.905 295.912 243.704 295.569 243.581 295.196C243.458 294.822 243.415 294.427 243.456 294.036L243.828 289.56C243.914 288.724 244.306 287.949 244.928 287.384C245.55 286.819 246.36 286.504 247.2 286.5Z" fill="#F5520A"/>
<path d="M249.108 293.196H247.644L247.38 293.88H246.072L247.992 289.716H249.396L250.596 293.88H249.252L249.108 293.196ZM248.916 292.296L248.592 290.796L248.004 292.296H248.916Z" fill="white"/>
<path d="M253.836 292.176L254.94 292.524C254.845 292.812 254.699 293.08 254.508 293.316C254.331 293.522 254.109 293.686 253.86 293.796C253.562 293.91 253.243 293.963 252.924 293.952C252.55 293.969 252.177 293.904 251.832 293.76C251.534 293.609 251.294 293.364 251.148 293.064C250.956 292.669 250.885 292.227 250.944 291.792C250.965 291.193 251.209 290.624 251.628 290.196C252.072 289.809 252.649 289.611 253.236 289.644C253.659 289.62 254.078 289.729 254.436 289.956C254.743 290.204 254.951 290.552 255.024 290.94L253.824 291.192C253.807 291.095 253.775 291.002 253.728 290.916C253.665 290.819 253.578 290.741 253.476 290.688C253.374 290.629 253.258 290.6 253.14 290.604C253.001 290.601 252.864 290.632 252.741 290.695C252.617 290.758 252.511 290.85 252.432 290.964C252.275 291.207 252.192 291.491 252.192 291.78C252.125 292.101 252.167 292.434 252.312 292.728C252.378 292.817 252.466 292.888 252.566 292.934C252.667 292.98 252.778 293 252.888 292.992C252.994 292.997 253.099 292.98 253.198 292.943C253.297 292.906 253.388 292.849 253.464 292.776C253.635 292.609 253.762 292.403 253.836 292.176Z" fill="white"/>
<path d="M258.372 292.176L259.476 292.524C259.381 292.812 259.235 293.08 259.044 293.316C258.867 293.522 258.645 293.686 258.396 293.796C258.097 293.91 257.779 293.963 257.46 293.952C257.086 293.969 256.713 293.904 256.368 293.76C256.07 293.609 255.83 293.364 255.684 293.064C255.492 292.669 255.421 292.227 255.48 291.792C255.501 291.193 255.745 290.624 256.164 290.196C256.608 289.809 257.185 289.611 257.772 289.644C258.195 289.622 258.614 289.731 258.972 289.956C259.275 290.207 259.483 290.554 259.56 290.94L258.36 291.192C258.343 291.095 258.311 291.002 258.264 290.916C258.198 290.822 258.112 290.744 258.012 290.688C257.906 290.628 257.786 290.599 257.664 290.604C257.527 290.602 257.392 290.634 257.271 290.696C257.149 290.759 257.045 290.851 256.968 290.964C256.811 291.208 256.724 291.49 256.716 291.78C256.657 292.102 256.703 292.434 256.848 292.728C256.913 292.818 257.001 292.889 257.102 292.935C257.202 292.981 257.313 293.001 257.424 292.992C257.528 293 257.633 292.987 257.731 292.954C257.83 292.921 257.922 292.869 258 292.8C258.174 292.626 258.302 292.412 258.372 292.176Z" fill="white"/>
<path d="M260.4 289.716H263.856L263.772 290.604H261.6L261.54 291.264H263.544L263.472 292.116H261.468L261.396 292.944H263.628L263.544 293.88H260.028L260.4 289.716Z" fill="white"/>
<path d="M264.54 289.716H266.688C266.872 289.699 267.058 289.72 267.233 289.778C267.409 289.836 267.57 289.929 267.708 290.052C267.817 290.182 267.896 290.334 267.942 290.498C267.987 290.661 267.997 290.832 267.972 291C267.963 291.187 267.918 291.37 267.837 291.539C267.757 291.708 267.644 291.859 267.504 291.984C267.16 292.244 266.733 292.367 266.304 292.332H265.596L265.464 293.88H264.168L264.54 289.716ZM265.74 291.492H266.064C266.25 291.505 266.434 291.459 266.592 291.36C266.641 291.322 266.682 291.275 266.713 291.222C266.744 291.168 266.764 291.109 266.772 291.048C266.78 290.986 266.775 290.924 266.759 290.864C266.742 290.805 266.714 290.749 266.676 290.7C266.61 290.644 266.534 290.602 266.451 290.578C266.368 290.553 266.282 290.546 266.196 290.556H265.824L265.74 291.492Z" fill="white"/>
<path d="M268.464 289.716H272.4L272.316 290.748H271.008L270.732 293.88H269.436L269.712 290.748H268.404L268.464 289.716Z" fill="white"/>
<path opacity="0.5" d="M215.028 332.208H202.332C201.979 332.212 201.63 332.141 201.306 332C200.983 331.859 200.693 331.652 200.455 331.391C200.217 331.131 200.037 330.823 199.926 330.488C199.815 330.153 199.777 329.799 199.812 329.448L200.88 316.8C200.956 316.058 201.3 315.369 201.848 314.863C202.396 314.357 203.11 314.069 203.856 314.052H216.564C216.916 314.047 217.265 314.116 217.589 314.256C217.912 314.395 218.202 314.601 218.44 314.861C218.678 315.12 218.859 315.427 218.97 315.762C219.081 316.096 219.12 316.45 219.084 316.8L218.016 329.496C217.927 330.232 217.576 330.911 217.027 331.409C216.478 331.907 215.769 332.19 215.028 332.208Z" fill="#F5520A"/>
<path opacity="0.25" d="M269.304 342.108H200.052C199.885 342.109 199.72 342.074 199.566 342.008C199.413 341.941 199.276 341.842 199.163 341.719C199.05 341.596 198.964 341.451 198.91 341.292C198.857 341.134 198.837 340.966 198.852 340.8C198.89 340.451 199.053 340.127 199.311 339.889C199.569 339.65 199.905 339.514 200.256 339.504H269.52C269.686 339.504 269.85 339.537 270.003 339.604C270.155 339.67 270.292 339.767 270.404 339.889C270.517 340.011 270.603 340.154 270.658 340.311C270.712 340.468 270.733 340.635 270.72 340.8C270.685 341.154 270.521 341.482 270.26 341.723C269.999 341.964 269.659 342.101 269.304 342.108Z" fill="#F5520A"/>
<path opacity="0.25" d="M255.9 342.108H200.052C199.885 342.109 199.72 342.074 199.566 342.008C199.413 341.941 199.276 341.842 199.163 341.719C199.05 341.596 198.964 341.451 198.91 341.292C198.857 341.134 198.837 340.966 198.852 340.8C198.89 340.451 199.053 340.127 199.311 339.889C199.569 339.65 199.905 339.514 200.256 339.504H256.104C256.27 339.504 256.434 339.537 256.587 339.604C256.739 339.67 256.876 339.767 256.988 339.889C257.101 340.011 257.187 340.154 257.242 340.311C257.296 340.468 257.317 340.635 257.304 340.8C257.269 341.152 257.107 341.478 256.849 341.719C256.59 341.96 256.253 342.098 255.9 342.108Z" fill="#F5520A"/>
<path opacity="0.2" d="M260.148 321.732H228.276C228.012 321.735 227.751 321.682 227.509 321.577C227.266 321.472 227.049 321.317 226.871 321.122C226.694 320.927 226.559 320.697 226.476 320.446C226.394 320.196 226.365 319.931 226.392 319.668C226.448 319.111 226.705 318.593 227.117 318.213C227.528 317.832 228.064 317.616 228.624 317.604H260.496C260.761 317.599 261.024 317.651 261.267 317.755C261.511 317.859 261.729 318.014 261.909 318.209C262.088 318.404 262.223 318.635 262.307 318.887C262.39 319.138 262.419 319.405 262.392 319.668C262.336 320.227 262.077 320.747 261.663 321.127C261.249 321.508 260.71 321.723 260.148 321.732Z" fill="#263238"/>
<path opacity="0.2" d="M246.972 328.608H227.7C227.436 328.609 227.174 328.555 226.932 328.449C226.69 328.342 226.473 328.186 226.295 327.99C226.117 327.794 225.983 327.563 225.9 327.312C225.818 327.061 225.789 326.795 225.816 326.532C225.869 325.974 226.126 325.455 226.538 325.074C226.95 324.693 227.487 324.477 228.048 324.468H247.32C247.584 324.467 247.845 324.521 248.087 324.627C248.328 324.732 248.545 324.887 248.724 325.081C248.902 325.276 249.038 325.505 249.123 325.755C249.208 326.005 249.239 326.269 249.216 326.532C249.16 327.093 248.901 327.613 248.488 327.996C248.074 328.378 247.535 328.596 246.972 328.608Z" fill="#263238"/>
<path opacity="0.1" d="M385.2 180.192H309.372C304.848 180.192 300.852 183.612 300.504 187.8L284.904 373.92H377.148L392.748 187.8C393.096 183.6 389.676 180.192 385.2 180.192Z" fill="#F5520A"/>
<path d="M382.8 184.8H310.956C309.326 184.835 307.764 185.464 306.564 186.569C305.364 187.673 304.609 189.178 304.44 190.8L300.84 233.88C300.762 234.645 300.847 235.417 301.088 236.146C301.33 236.876 301.723 237.546 302.243 238.112C302.762 238.679 303.395 239.13 304.1 239.434C304.806 239.739 305.568 239.891 306.336 239.88H378.18C379.811 239.848 381.374 239.22 382.575 238.114C383.775 237.009 384.529 235.503 384.696 233.88L388.296 190.8C388.372 190.036 388.286 189.264 388.043 188.536C387.801 187.807 387.408 187.138 386.889 186.572C386.37 186.005 385.738 185.555 385.033 185.25C384.329 184.944 383.568 184.791 382.8 184.8Z" fill="white"/>
<path d="M377.616 246.396H305.784C304.153 246.428 302.59 247.057 301.389 248.162C300.189 249.267 299.435 250.773 299.268 252.396L295.668 295.476C295.592 296.241 295.678 297.014 295.921 297.743C296.165 298.473 296.559 299.142 297.079 299.709C297.599 300.275 298.233 300.726 298.939 301.03C299.645 301.335 300.407 301.487 301.176 301.476H373.02C374.65 301.441 376.212 300.812 377.412 299.707C378.612 298.603 379.367 297.098 379.536 295.476L383.136 252.396C383.212 251.63 383.126 250.856 382.882 250.126C382.638 249.396 382.242 248.725 381.721 248.159C381.2 247.592 380.564 247.142 379.857 246.838C379.15 246.534 378.386 246.384 377.616 246.396Z" fill="white"/>
<path d="M372.444 308.004H300.612C298.98 308.034 297.415 308.661 296.215 309.767C295.014 310.872 294.26 312.38 294.096 314.004L290.496 357.084C290.42 357.849 290.506 358.622 290.749 359.351C290.993 360.081 291.387 360.75 291.907 361.317C292.427 361.883 293.061 362.334 293.767 362.638C294.473 362.943 295.235 363.095 296.004 363.084H367.848C369.478 363.049 371.04 362.42 372.24 361.315C373.44 360.211 374.195 358.706 374.364 357.084L377.964 314.004C378.042 313.237 377.957 312.463 377.714 311.732C377.471 311.001 377.075 310.33 376.553 309.763C376.032 309.195 375.396 308.746 374.687 308.442C373.979 308.139 373.214 307.99 372.444 308.004Z" fill="white"/>
<path opacity="0.5" d="M324.36 208.992H311.664C311.312 208.997 310.963 208.928 310.639 208.788C310.316 208.649 310.026 208.443 309.788 208.183C309.55 207.924 309.369 207.617 309.258 207.283C309.147 206.948 309.108 206.594 309.144 206.244L310.212 193.536C310.288 192.793 310.635 192.104 311.186 191.6C311.736 191.095 312.453 190.811 313.2 190.8H325.908C326.26 190.795 326.609 190.864 326.933 191.004C327.256 191.143 327.546 191.349 327.784 191.609C328.022 191.868 328.203 192.175 328.314 192.51C328.425 192.844 328.464 193.198 328.428 193.548L327.36 206.256C327.278 206.999 326.929 207.687 326.376 208.19C325.824 208.694 325.107 208.979 324.36 208.992Z" fill="#F5520A"/>
<path opacity="0.25" d="M378.636 218.892H309.384C309.218 218.893 309.054 218.859 308.902 218.792C308.749 218.726 308.612 218.629 308.5 218.507C308.387 218.385 308.301 218.242 308.246 218.085C308.192 217.928 308.171 217.761 308.184 217.596C308.216 217.244 308.377 216.915 308.636 216.674C308.895 216.433 309.234 216.295 309.588 216.288H378.852C379.019 216.287 379.185 216.322 379.338 216.388C379.491 216.455 379.628 216.554 379.741 216.677C379.854 216.8 379.94 216.945 379.994 217.104C380.047 217.262 380.067 217.43 380.052 217.596C380.014 217.947 379.849 218.273 379.589 218.511C379.328 218.75 378.989 218.885 378.636 218.892Z" fill="#F5520A"/>
<path opacity="0.25" d="M339.096 218.892H309.384C309.218 218.893 309.054 218.859 308.902 218.792C308.749 218.726 308.612 218.629 308.5 218.507C308.387 218.385 308.301 218.242 308.246 218.085C308.192 217.928 308.171 217.761 308.184 217.596C308.216 217.244 308.377 216.915 308.636 216.674C308.895 216.433 309.234 216.295 309.588 216.288H339.312C339.479 216.287 339.645 216.322 339.798 216.388C339.951 216.455 340.088 216.554 340.201 216.677C340.314 216.8 340.4 216.945 340.454 217.104C340.507 217.262 340.527 217.43 340.512 217.596C340.474 217.947 340.309 218.273 340.049 218.511C339.788 218.75 339.449 218.885 339.096 218.892Z" fill="#F5520A"/>
<path opacity="0.2" d="M369.48 198.528H337.608C337.343 198.531 337.08 198.478 336.836 198.372C336.593 198.267 336.374 198.111 336.195 197.915C336.016 197.719 335.88 197.487 335.797 197.235C335.714 196.983 335.685 196.716 335.712 196.452C335.77 195.894 336.031 195.376 336.444 194.996C336.857 194.616 337.395 194.4 337.956 194.388H369.828C370.092 194.385 370.353 194.438 370.595 194.543C370.838 194.648 371.055 194.803 371.233 194.998C371.41 195.193 371.545 195.423 371.628 195.674C371.71 195.924 371.739 196.19 371.712 196.452C371.657 197.011 371.399 197.53 370.988 197.912C370.577 198.294 370.041 198.513 369.48 198.528Z" fill="#263238"/>
<path opacity="0.2" d="M356.304 205.392H337.032C336.768 205.395 336.506 205.342 336.263 205.237C336.021 205.132 335.803 204.977 335.624 204.783C335.445 204.588 335.309 204.358 335.225 204.107C335.141 203.857 335.111 203.591 335.136 203.328C335.192 202.768 335.451 202.247 335.864 201.864C336.278 201.482 336.817 201.264 337.38 201.252H356.652C356.916 201.251 357.178 201.305 357.42 201.411C357.662 201.518 357.879 201.674 358.057 201.87C358.235 202.066 358.369 202.297 358.452 202.548C358.534 202.799 358.563 203.065 358.536 203.328C358.478 203.884 358.219 204.401 357.809 204.78C357.398 205.16 356.863 205.378 356.304 205.392Z" fill="#263238"/>
<path opacity="0.5" d="M319.2 270.6H306.492C306.14 270.605 305.791 270.536 305.467 270.396C305.144 270.257 304.854 270.051 304.616 269.791C304.378 269.532 304.197 269.225 304.086 268.891C303.975 268.556 303.936 268.202 303.972 267.852L305.04 255.144C305.113 254.401 305.457 253.711 306.005 253.204C306.554 252.698 307.269 252.41 308.016 252.396H320.712C321.065 252.389 321.415 252.457 321.739 252.596C322.063 252.734 322.354 252.941 322.593 253.201C322.831 253.461 323.012 253.768 323.122 254.103C323.232 254.439 323.27 254.793 323.232 255.144L322.176 267.852C322.098 268.593 321.753 269.28 321.205 269.786C320.658 270.292 319.945 270.581 319.2 270.6Z" fill="#F5520A"/>
<path opacity="0.25" d="M373.464 280.5H304.212C304.045 280.501 303.88 280.466 303.726 280.4C303.573 280.333 303.436 280.234 303.323 280.111C303.21 279.988 303.124 279.843 303.07 279.684C303.017 279.526 302.997 279.358 303.012 279.192C303.05 278.841 303.215 278.515 303.475 278.277C303.736 278.038 304.075 277.903 304.428 277.896H373.68C373.846 277.895 374.01 277.929 374.163 277.996C374.315 278.062 374.452 278.159 374.564 278.281C374.677 278.403 374.763 278.546 374.818 278.703C374.872 278.86 374.893 279.027 374.88 279.192C374.845 279.545 374.681 279.874 374.42 280.115C374.159 280.356 373.819 280.493 373.464 280.5Z" fill="#F5520A"/>
<path opacity="0.25" d="M307.908 280.5H304.212C304.045 280.501 303.88 280.466 303.726 280.4C303.573 280.333 303.436 280.234 303.323 280.111C303.21 279.988 303.124 279.843 303.07 279.684C303.017 279.526 302.997 279.358 303.012 279.192C303.05 278.841 303.215 278.515 303.475 278.277C303.736 278.038 304.075 277.903 304.428 277.896H308.124C308.29 277.895 308.454 277.929 308.607 277.996C308.759 278.062 308.896 278.159 309.008 278.281C309.121 278.403 309.207 278.546 309.262 278.703C309.316 278.86 309.337 279.027 309.324 279.192C309.289 279.545 309.125 279.874 308.864 280.115C308.603 280.356 308.263 280.493 307.908 280.5Z" fill="#F5520A"/>
<path opacity="0.2" d="M364.308 260.136H332.4C332.135 260.139 331.872 260.086 331.628 259.98C331.385 259.875 331.166 259.719 330.987 259.523C330.808 259.327 330.672 259.095 330.589 258.843C330.506 258.591 330.477 258.324 330.504 258.06C330.562 257.502 330.823 256.984 331.236 256.604C331.649 256.224 332.187 256.008 332.748 255.996H364.62C364.884 255.993 365.145 256.046 365.387 256.151C365.63 256.256 365.847 256.411 366.025 256.606C366.202 256.801 366.337 257.031 366.42 257.282C366.502 257.532 366.531 257.798 366.504 258.06C366.45 258.613 366.197 259.127 365.794 259.508C365.39 259.89 364.863 260.113 364.308 260.136Z" fill="#263238"/>
<path opacity="0.2" d="M351.132 267H331.86C331.596 267.003 331.334 266.95 331.091 266.845C330.849 266.74 330.631 266.585 330.452 266.391C330.273 266.196 330.137 265.966 330.053 265.715C329.969 265.465 329.939 265.199 329.964 264.936C330.02 264.375 330.279 263.855 330.692 263.472C331.106 263.09 331.645 262.872 332.208 262.86H351.468C351.733 262.857 351.997 262.91 352.24 263.016C352.484 263.121 352.702 263.277 352.881 263.473C353.06 263.669 353.196 263.901 353.279 264.153C353.362 264.405 353.391 264.672 353.364 264.936C353.306 265.492 353.047 266.009 352.637 266.388C352.226 266.768 351.691 266.986 351.132 267Z" fill="#263238"/>
<path opacity="0.5" d="M314.016 332.208H301.32C300.967 332.212 300.618 332.141 300.294 332C299.971 331.859 299.681 331.652 299.443 331.391C299.205 331.131 299.025 330.823 298.914 330.488C298.804 330.153 298.765 329.799 298.8 329.448L299.868 316.752C299.941 316.009 300.285 315.319 300.833 314.812C301.382 314.306 302.097 314.018 302.844 314.004H315.6C315.952 313.999 316.301 314.068 316.625 314.208C316.948 314.347 317.238 314.553 317.476 314.813C317.714 315.072 317.895 315.379 318.006 315.714C318.117 316.048 318.156 316.402 318.12 316.752L317.052 329.448C316.978 330.202 316.626 330.902 316.065 331.412C315.504 331.922 314.774 332.206 314.016 332.208Z" fill="#F5520A"/>
<path opacity="0.5" d="M368.292 342.108H299.04C298.873 342.109 298.708 342.074 298.554 342.008C298.401 341.941 298.264 341.842 298.151 341.719C298.038 341.596 297.952 341.451 297.898 341.292C297.845 341.134 297.825 340.966 297.84 340.8C297.878 340.449 298.043 340.123 298.303 339.885C298.564 339.646 298.903 339.511 299.256 339.504H368.508C368.674 339.504 368.838 339.537 368.991 339.604C369.143 339.67 369.28 339.767 369.392 339.889C369.505 340.011 369.591 340.154 369.646 340.311C369.7 340.468 369.721 340.635 369.708 340.8C369.673 341.154 369.509 341.482 369.248 341.723C368.987 341.964 368.647 342.101 368.292 342.108Z" fill="#F5520A"/>
<path opacity="0.2" d="M359.136 321.732H327.264C326.999 321.737 326.736 321.685 326.493 321.581C326.249 321.477 326.031 321.322 325.852 321.127C325.672 320.932 325.537 320.701 325.453 320.449C325.37 320.198 325.341 319.932 325.368 319.668C325.424 319.109 325.683 318.589 326.097 318.209C326.511 317.828 327.05 317.613 327.612 317.604H359.472C359.737 317.599 360 317.651 360.243 317.755C360.487 317.859 360.705 318.014 360.885 318.209C361.064 318.404 361.2 318.635 361.283 318.887C361.366 319.138 361.395 319.405 361.368 319.668C361.312 320.225 361.055 320.743 360.643 321.123C360.232 321.504 359.696 321.72 359.136 321.732Z" fill="#263238"/>
<path opacity="0.2" d="M345.948 328.608H326.688C326.423 328.611 326.159 328.558 325.916 328.452C325.672 328.347 325.454 328.191 325.275 327.995C325.096 327.799 324.96 327.567 324.877 327.315C324.794 327.063 324.765 326.796 324.792 326.532C324.85 325.974 325.111 325.456 325.524 325.076C325.937 324.696 326.475 324.48 327.036 324.468H346.296C346.56 324.465 346.822 324.518 347.065 324.623C347.307 324.728 347.525 324.883 347.704 325.077C347.883 325.272 348.019 325.502 348.103 325.753C348.187 326.003 348.217 326.269 348.192 326.532C348.136 327.092 347.877 327.613 347.464 327.996C347.05 328.378 346.511 328.596 345.948 328.608Z" fill="#263238"/>
<path d="M340.956 348.108H366C366.392 348.103 366.781 348.18 367.141 348.336C367.501 348.491 367.824 348.721 368.089 349.009C368.354 349.298 368.555 349.64 368.679 350.012C368.803 350.384 368.847 350.778 368.808 351.168L368.436 355.644C368.349 356.471 367.963 357.238 367.351 357.801C366.739 358.364 365.943 358.685 365.112 358.704H340.068C339.676 358.709 339.287 358.632 338.927 358.476C338.567 358.321 338.244 358.091 337.979 357.803C337.714 357.514 337.513 357.172 337.389 356.8C337.265 356.428 337.221 356.034 337.26 355.644L337.632 351.168C337.719 350.341 338.105 349.574 338.717 349.011C339.329 348.448 340.125 348.127 340.956 348.108Z" fill="#F5520A"/>
<path d="M342.924 354.804H341.46L341.196 355.488H339.876L341.808 351.324H343.2L344.4 355.488H343.056L342.924 354.804ZM342.732 353.904L342.396 352.404L341.808 353.904H342.732Z" fill="white"/>
<path d="M347.652 353.784L348.744 354.12C348.661 354.414 348.518 354.688 348.324 354.924C348.146 355.13 347.925 355.294 347.676 355.404C347.374 355.519 347.051 355.572 346.728 355.56C346.354 355.576 345.982 355.51 345.636 355.368C345.341 355.213 345.102 354.97 344.952 354.672C344.752 354.197 344.691 353.674 344.779 353.166C344.866 352.658 345.097 352.185 345.444 351.804C345.887 351.417 346.464 351.219 347.052 351.252C347.474 351.231 347.893 351.34 348.252 351.564C348.551 351.816 348.755 352.164 348.828 352.548L347.628 352.8C347.605 352.704 347.568 352.611 347.52 352.524C347.462 352.428 347.379 352.349 347.28 352.296C347.174 352.236 347.054 352.207 346.932 352.212C346.796 352.209 346.662 352.238 346.541 352.299C346.419 352.36 346.315 352.449 346.236 352.56C346.082 352.81 345.995 353.095 345.984 353.388C345.921 353.71 345.967 354.044 346.116 354.336C346.181 354.423 346.266 354.493 346.365 354.539C346.463 354.585 346.571 354.606 346.68 354.6C346.786 354.607 346.892 354.592 346.991 354.554C347.091 354.517 347.181 354.459 347.256 354.384C347.44 354.223 347.576 354.016 347.652 353.784Z" fill="white"/>
<path d="M352.176 353.784L353.28 354.12C353.193 354.415 353.046 354.688 352.848 354.924C352.671 355.13 352.449 355.294 352.2 355.404C351.901 355.518 351.583 355.571 351.264 355.56C350.89 355.577 350.517 355.512 350.172 355.368C349.877 355.213 349.638 354.97 349.488 354.672C349.296 354.277 349.225 353.835 349.284 353.4C349.305 352.801 349.549 352.232 349.968 351.804C350.413 351.42 350.989 351.222 351.576 351.252C351.999 351.228 352.418 351.337 352.776 351.564C353.083 351.812 353.291 352.16 353.364 352.548L352.164 352.8C352.149 352.703 352.117 352.609 352.068 352.524C352.01 352.428 351.927 352.349 351.828 352.296C351.721 352.238 351.601 352.209 351.48 352.212C351.343 352.21 351.207 352.24 351.084 352.3C350.961 352.361 350.854 352.45 350.772 352.56C350.622 352.811 350.539 353.096 350.532 353.388C350.468 353.71 350.515 354.044 350.664 354.336C350.729 354.423 350.815 354.493 350.913 354.539C351.011 354.585 351.12 354.606 351.228 354.6C351.334 354.607 351.44 354.592 351.539 354.554C351.639 354.517 351.729 354.459 351.804 354.384C351.985 354.226 352.115 354.017 352.176 353.784Z" fill="white"/>
<path d="M354.144 351.324H357.6L357.528 352.212H355.356V352.872H357.36L357.288 353.724H355.2L355.128 354.552H357.348L357.264 355.488H353.748L354.144 351.324Z" fill="white"/>
<path d="M358.356 351.324H360.492C360.675 351.308 360.859 351.328 361.034 351.384C361.209 351.44 361.372 351.529 361.512 351.648C361.621 351.778 361.7 351.93 361.746 352.094C361.791 352.257 361.801 352.428 361.776 352.596C361.759 352.974 361.595 353.332 361.32 353.592C360.973 353.845 360.548 353.968 360.12 353.94H359.424L359.292 355.488H357.996L358.356 351.324ZM359.496 353.1H359.808C359.997 353.115 360.187 353.069 360.348 352.968C360.401 352.929 360.445 352.878 360.476 352.82C360.507 352.762 360.525 352.698 360.528 352.632C360.535 352.573 360.529 352.514 360.511 352.458C360.492 352.402 360.461 352.351 360.42 352.308C360.354 352.252 360.278 352.21 360.195 352.186C360.112 352.161 360.026 352.154 359.94 352.164H359.568L359.496 353.1Z" fill="white"/>
<path d="M362.268 351.324H366.192L366.108 352.356H364.8L364.524 355.488H363.24L363.516 352.356H362.196L362.268 351.324Z" fill="white"/>
<path opacity="0.1" d="M484.128 180.192H408.36C406.207 180.16 404.116 180.915 402.481 182.316C400.845 183.717 399.778 185.667 399.48 187.8L383.88 373.92H476.124L491.724 187.8C492.084 183.6 488.664 180.192 484.128 180.192Z" fill="#F5520A"/>
<path d="M481.776 184.8H409.944C408.313 184.832 406.75 185.461 405.549 186.566C404.349 187.671 403.595 189.177 403.428 190.8L399.828 233.88C399.75 234.646 399.835 235.419 400.077 236.149C400.32 236.879 400.714 237.55 401.235 238.117C401.755 238.684 402.389 239.134 403.096 239.438C403.803 239.742 404.567 239.892 405.336 239.88H477.168C478.8 239.85 480.364 239.223 481.565 238.117C482.766 237.012 483.52 235.504 483.684 233.88L487.284 190.8C487.36 190.035 487.274 189.262 487.031 188.533C486.787 187.803 486.393 187.134 485.873 186.567C485.353 186.001 484.719 185.55 484.013 185.246C483.307 184.941 482.545 184.789 481.776 184.8Z" fill="white"/>
<path d="M476.604 246.396H404.772C403.141 246.428 401.578 247.057 400.377 248.162C399.177 249.267 398.423 250.773 398.256 252.396L394.656 295.476C394.578 296.242 394.663 297.015 394.905 297.745C395.148 298.475 395.542 299.146 396.063 299.713C396.583 300.28 397.217 300.73 397.924 301.034C398.631 301.338 399.395 301.488 400.164 301.476H471.996C473.628 301.446 475.192 300.819 476.393 299.713C477.594 298.608 478.348 297.1 478.512 295.476L482.112 252.396C482.186 251.631 482.098 250.859 481.855 250.131C481.611 249.402 481.216 248.733 480.697 248.167C480.177 247.601 479.544 247.151 478.839 246.846C478.134 246.541 477.372 246.387 476.604 246.396Z" fill="white"/>
<path d="M471.432 308.004H399.6C397.969 308.039 396.408 308.668 395.208 309.773C394.008 310.877 393.253 312.382 393.084 314.004L389.484 357.084C389.406 357.85 389.491 358.623 389.733 359.353C389.976 360.083 390.37 360.754 390.891 361.321C391.411 361.888 392.045 362.338 392.752 362.642C393.459 362.946 394.223 363.096 394.992 363.084H466.8C468.432 363.054 469.996 362.427 471.197 361.321C472.398 360.216 473.152 358.708 473.316 357.084L476.916 314.004C476.992 313.241 476.906 312.47 476.664 311.743C476.423 311.015 476.03 310.346 475.513 309.78C474.996 309.214 474.365 308.763 473.662 308.457C472.959 308.151 472.199 307.997 471.432 308.004Z" fill="white"/>
<path opacity="0.5" d="M423.348 208.992H410.652C410.299 208.999 409.949 208.931 409.625 208.792C409.301 208.654 409.01 208.447 408.771 208.187C408.533 207.927 408.352 207.62 408.242 207.285C408.132 206.949 408.094 206.595 408.132 206.244L409.188 193.536C409.267 192.793 409.613 192.104 410.163 191.598C410.713 191.092 411.429 190.804 412.176 190.788H424.872C425.224 190.783 425.573 190.852 425.897 190.992C426.22 191.131 426.51 191.337 426.748 191.597C426.986 191.856 427.167 192.163 427.278 192.498C427.389 192.832 427.428 193.186 427.392 193.536L426.324 206.244C426.251 206.987 425.907 207.677 425.359 208.184C424.81 208.69 424.095 208.978 423.348 208.992Z" fill="#F5520A"/>
<path opacity="0.5" d="M477.6 218.892H408.36C408.194 218.893 408.03 218.859 407.877 218.792C407.725 218.726 407.588 218.629 407.476 218.507C407.363 218.385 407.277 218.242 407.222 218.085C407.168 217.928 407.147 217.761 407.16 217.596C407.195 217.243 407.359 216.914 407.62 216.673C407.881 216.432 408.221 216.295 408.576 216.288H477.84C478.007 216.287 478.172 216.322 478.326 216.388C478.479 216.455 478.616 216.554 478.729 216.677C478.842 216.8 478.928 216.945 478.982 217.104C479.035 217.262 479.055 217.43 479.04 217.596C479.004 217.952 478.837 218.283 478.571 218.522C478.304 218.762 477.958 218.894 477.6 218.892Z" fill="#F5520A"/>
<path opacity="0.2" d="M468.456 198.528H436.596C436.331 198.531 436.067 198.478 435.824 198.372C435.58 198.267 435.362 198.111 435.183 197.915C435.004 197.719 434.868 197.487 434.785 197.235C434.702 196.983 434.673 196.716 434.7 196.452C434.758 195.894 435.019 195.376 435.432 194.996C435.845 194.616 436.383 194.4 436.944 194.388H468.804C469.068 194.385 469.33 194.438 469.573 194.543C469.815 194.648 470.033 194.803 470.212 194.997C470.391 195.192 470.527 195.422 470.611 195.673C470.695 195.923 470.725 196.189 470.7 196.452C470.644 197.013 470.385 197.533 469.972 197.916C469.558 198.298 469.019 198.516 468.456 198.528Z" fill="#263238"/>
<path opacity="0.2" d="M455.28 205.392H436.08C435.816 205.395 435.554 205.342 435.311 205.237C435.069 205.132 434.851 204.977 434.672 204.783C434.493 204.588 434.357 204.358 434.273 204.107C434.189 203.857 434.159 203.591 434.184 203.328C434.24 202.767 434.499 202.247 434.912 201.864C435.326 201.482 435.865 201.264 436.428 201.252H455.688C455.953 201.249 456.217 201.302 456.46 201.408C456.704 201.513 456.922 201.669 457.101 201.865C457.28 202.061 457.416 202.293 457.499 202.545C457.582 202.797 457.611 203.064 457.584 203.328C457.524 203.897 457.256 204.423 456.83 204.804C456.404 205.186 455.852 205.395 455.28 205.392Z" fill="#263238"/>
<path opacity="0.5" d="M418.176 270.6H405.468C405.116 270.605 404.767 270.536 404.443 270.396C404.12 270.257 403.83 270.051 403.592 269.791C403.354 269.532 403.173 269.225 403.062 268.891C402.951 268.556 402.912 268.202 402.948 267.852L404.016 255.144C404.095 254.401 404.441 253.712 404.991 253.206C405.541 252.7 406.257 252.412 407.004 252.396H419.7C420.052 252.391 420.401 252.46 420.725 252.6C421.048 252.739 421.338 252.945 421.576 253.205C421.814 253.464 421.995 253.771 422.106 254.106C422.217 254.44 422.256 254.794 422.22 255.144L421.2 267.852C421.126 268.603 420.775 269.3 420.217 269.808C419.658 270.315 418.931 270.598 418.176 270.6Z" fill="#F5520A"/>
<path opacity="0.5" d="M472.452 280.5H403.2C403.033 280.501 402.867 280.466 402.714 280.4C402.561 280.333 402.424 280.234 402.311 280.111C402.198 279.988 402.112 279.843 402.058 279.684C402.005 279.526 401.985 279.358 402 279.192C402.038 278.843 402.201 278.519 402.459 278.281C402.717 278.042 403.053 277.906 403.404 277.896H472.668C472.834 277.895 472.998 277.929 473.151 277.996C473.303 278.062 473.44 278.159 473.552 278.281C473.665 278.403 473.751 278.546 473.806 278.703C473.86 278.86 473.881 279.027 473.868 279.192C473.833 279.545 473.669 279.874 473.408 280.115C473.147 280.356 472.807 280.493 472.452 280.5Z" fill="#F5520A"/>
<path opacity="0.2" d="M463.284 260.136H431.424C431.159 260.139 430.895 260.086 430.652 259.98C430.408 259.875 430.19 259.719 430.011 259.523C429.832 259.327 429.696 259.095 429.613 258.843C429.53 258.591 429.501 258.324 429.528 258.06C429.586 257.502 429.847 256.984 430.26 256.604C430.673 256.224 431.211 256.008 431.772 255.996H463.632C463.896 255.993 464.158 256.046 464.401 256.151C464.643 256.256 464.861 256.411 465.04 256.605C465.219 256.8 465.355 257.03 465.439 257.281C465.523 257.531 465.553 257.797 465.528 258.06C465.472 258.621 465.213 259.141 464.8 259.524C464.386 259.906 463.847 260.124 463.284 260.136Z" fill="#263238"/>
<path opacity="0.2" d="M450.108 267H430.8C430.536 267.003 430.274 266.95 430.031 266.845C429.789 266.74 429.571 266.585 429.392 266.391C429.213 266.196 429.077 265.966 428.993 265.715C428.909 265.465 428.879 265.199 428.904 264.936C428.96 264.375 429.219 263.855 429.632 263.472C430.046 263.09 430.585 262.872 431.148 262.86H450.408C450.673 262.857 450.937 262.91 451.18 263.016C451.424 263.121 451.642 263.277 451.821 263.473C452 263.669 452.136 263.901 452.219 264.153C452.302 264.405 452.331 264.672 452.304 264.936C452.247 265.486 451.993 265.998 451.59 266.377C451.187 266.756 450.661 266.977 450.108 267Z" fill="#263238"/>
<path d="M445.116 286.5H470.184C470.576 286.495 470.965 286.572 471.325 286.728C471.685 286.883 472.008 287.113 472.273 287.401C472.538 287.69 472.739 288.032 472.863 288.404C472.987 288.776 473.031 289.17 472.992 289.56L472.608 294.036C472.528 294.867 472.146 295.64 471.532 296.206C470.919 296.773 470.119 297.094 469.284 297.108H444.228C443.835 297.114 443.445 297.036 443.084 296.88C442.723 296.724 442.399 296.493 442.134 296.203C441.869 295.912 441.668 295.569 441.545 295.196C441.422 294.822 441.379 294.427 441.42 294.036L441.792 289.56C441.879 288.733 442.265 287.966 442.877 287.403C443.489 286.84 444.285 286.519 445.116 286.5Z" fill="#F5520A"/>
<path d="M447.072 293.196H445.608L445.344 293.88H444L445.92 289.716H447.336L448.536 293.88H447.192L447.072 293.196ZM446.88 292.296L446.556 290.796L445.968 292.296H446.88Z" fill="white"/>
<path d="M451.8 292.176L452.904 292.524C452.814 292.814 452.667 293.083 452.472 293.316C452.295 293.522 452.073 293.686 451.824 293.796C451.525 293.91 451.207 293.963 450.888 293.952C450.514 293.969 450.141 293.903 449.796 293.76C449.498 293.608 449.258 293.364 449.112 293.064C448.92 292.669 448.849 292.227 448.908 291.792C448.929 291.193 449.173 290.624 449.592 290.196C450.037 289.812 450.613 289.614 451.2 289.644C451.623 289.62 452.042 289.729 452.4 289.956C452.707 290.204 452.915 290.552 452.988 290.94L451.788 291.192C451.771 291.095 451.739 291.002 451.692 290.916C451.634 290.82 451.551 290.741 451.452 290.688C451.346 290.63 451.225 290.601 451.104 290.604C450.966 290.602 450.829 290.634 450.705 290.696C450.582 290.759 450.476 290.851 450.396 290.964C450.244 291.209 450.161 291.491 450.156 291.78C450.091 292.102 450.137 292.436 450.288 292.728C450.351 292.818 450.436 292.889 450.535 292.935C450.634 292.982 450.743 293.001 450.852 292.992C450.958 292.999 451.064 292.984 451.163 292.946C451.263 292.909 451.353 292.851 451.428 292.776C451.609 292.618 451.739 292.409 451.8 292.176Z" fill="white"/>
<path d="M456.336 292.176L457.44 292.524C457.345 292.812 457.199 293.08 457.008 293.316C456.831 293.522 456.609 293.686 456.36 293.796C456.061 293.91 455.743 293.963 455.424 293.952C455.05 293.969 454.677 293.904 454.332 293.76C454.034 293.609 453.794 293.364 453.648 293.064C453.456 292.669 453.385 292.227 453.444 291.792C453.465 291.193 453.709 290.624 454.128 290.196C454.572 289.809 455.149 289.611 455.736 289.644C456.159 289.62 456.578 289.729 456.936 289.956C457.243 290.204 457.451 290.552 457.524 290.94L456.324 291.192C456.307 291.095 456.275 291.002 456.228 290.916C456.165 290.819 456.078 290.741 455.976 290.688C455.874 290.629 455.758 290.6 455.64 290.604C455.501 290.601 455.364 290.632 455.241 290.695C455.117 290.758 455.011 290.85 454.932 290.964C454.775 291.207 454.692 291.491 454.692 291.78C454.625 292.101 454.667 292.434 454.812 292.728C454.878 292.817 454.966 292.888 455.066 292.934C455.167 292.98 455.278 293 455.388 292.992C455.498 293.005 455.609 292.995 455.715 292.962C455.82 292.929 455.917 292.874 456 292.8C456.161 292.622 456.276 292.408 456.336 292.176Z" fill="white"/>
<path d="M458.304 289.716H461.76L461.676 290.604H459.516L459.456 291.264H461.472L461.388 292.116H459.384L459.312 292.944H461.544L461.46 293.88H457.944L458.304 289.716Z" fill="white"/>
<path d="M462.504 289.716H464.652C464.836 289.699 465.022 289.72 465.197 289.778C465.373 289.836 465.534 289.929 465.672 290.052C465.785 290.18 465.867 290.331 465.913 290.496C465.959 290.66 465.966 290.832 465.936 291C465.928 291.187 465.882 291.37 465.801 291.539C465.721 291.708 465.608 291.859 465.468 291.984C465.126 292.247 464.698 292.371 464.268 292.332H463.56L463.428 293.88H462.132L462.504 289.716ZM463.704 291.492H464.016C464.202 291.507 464.387 291.461 464.544 291.36C464.593 291.322 464.634 291.275 464.665 291.222C464.696 291.168 464.716 291.109 464.724 291.048C464.732 290.986 464.727 290.924 464.711 290.864C464.694 290.805 464.666 290.749 464.628 290.7C464.562 290.644 464.486 290.602 464.403 290.578C464.32 290.553 464.234 290.546 464.148 290.556H463.776L463.704 291.492Z" fill="white"/>
<path d="M466.428 289.716H470.4L470.304 290.748H468.996L468.72 293.88H467.436L467.7 290.748H466.392L466.428 289.716Z" fill="white"/>
<path opacity="0.5" d="M413.004 332.208H400.296C399.943 332.212 399.594 332.141 399.27 332C398.947 331.859 398.657 331.652 398.419 331.391C398.181 331.131 398.001 330.823 397.89 330.488C397.78 330.153 397.741 329.799 397.776 329.448L398.844 316.752C398.923 316.009 399.269 315.32 399.819 314.814C400.369 314.308 401.085 314.02 401.832 314.004H414.528C414.88 313.999 415.229 314.068 415.553 314.208C415.876 314.347 416.166 314.553 416.404 314.813C416.642 315.072 416.823 315.379 416.934 315.714C417.045 316.048 417.084 316.402 417.048 316.752L415.98 329.448C415.904 330.191 415.56 330.882 415.013 331.39C414.465 331.898 413.751 332.189 413.004 332.208Z" fill="#F5520A"/>
<path opacity="0.25" d="M467.28 342.108H398.016C397.849 342.109 397.684 342.074 397.53 342.008C397.377 341.941 397.24 341.842 397.127 341.719C397.014 341.596 396.928 341.451 396.874 341.292C396.821 341.134 396.801 340.966 396.816 340.8C396.854 340.451 397.017 340.127 397.275 339.889C397.533 339.65 397.869 339.514 398.22 339.504H467.484C467.65 339.504 467.814 339.537 467.967 339.604C468.119 339.67 468.256 339.767 468.368 339.889C468.481 340.011 468.567 340.154 468.622 340.311C468.676 340.468 468.697 340.635 468.684 340.8C468.649 341.152 468.487 341.478 468.229 341.719C467.97 341.96 467.633 342.098 467.28 342.108Z" fill="#F5520A"/>
<path opacity="0.2" d="M458.112 321.732H426.252C425.987 321.737 425.724 321.685 425.481 321.581C425.237 321.477 425.019 321.322 424.84 321.127C424.66 320.932 424.525 320.701 424.441 320.449C424.358 320.198 424.329 319.932 424.356 319.668C424.412 319.111 424.669 318.593 425.081 318.213C425.492 317.832 426.028 317.616 426.588 317.604H458.46C458.725 317.599 458.988 317.651 459.231 317.755C459.475 317.859 459.693 318.014 459.873 318.209C460.052 318.404 460.188 318.635 460.271 318.887C460.354 319.138 460.383 319.405 460.356 319.668C460.3 320.227 460.041 320.747 459.627 321.127C459.213 321.508 458.674 321.723 458.112 321.732Z" fill="#263238"/>
<path opacity="0.2" d="M444.936 328.608H425.736C425.471 328.611 425.207 328.558 424.964 328.452C424.72 328.347 424.502 328.191 424.323 327.995C424.144 327.799 424.008 327.567 423.925 327.315C423.842 327.063 423.813 326.796 423.84 326.532C423.898 325.976 424.157 325.459 424.567 325.08C424.978 324.7 425.513 324.482 426.072 324.468H445.344C445.608 324.465 445.87 324.518 446.113 324.623C446.355 324.728 446.573 324.883 446.752 325.077C446.931 325.272 447.067 325.502 447.151 325.753C447.235 326.003 447.265 326.269 447.24 326.532C447.183 327.103 446.916 327.632 446.49 328.016C446.063 328.4 445.51 328.611 444.936 328.608Z" fill="#263238"/>
<path d="M139.128 173.544C139.248 180.744 139.632 193.392 135.84 197.832C144.553 200.681 152.368 205.761 158.508 212.568C163.704 204.072 156.936 199.512 156.936 199.512C149.448 197.112 150.936 192.408 152.484 187.224L139.128 173.544Z" fill="#B55B52"/>
<path d="M132.6 210.756L128.184 219.252L123.828 227.76C122.412 230.604 121.02 233.436 119.736 236.232C119.1 237.636 118.536 239.028 117.984 240.372C117.506 241.512 117.105 242.682 116.784 243.876V241.968C116.935 243.698 117.253 245.41 117.732 247.08C118.259 248.931 118.892 250.75 119.628 252.528C120.372 254.364 121.224 256.2 122.136 258.036C123.048 259.872 124.068 261.756 124.98 263.472L125.112 263.7C125.505 264.423 125.633 265.26 125.473 266.067C125.314 266.874 124.878 267.6 124.24 268.12C123.603 268.639 122.804 268.919 121.981 268.912C121.159 268.905 120.364 268.611 119.736 268.08C117.935 266.574 116.25 264.933 114.696 263.172C113.148 261.421 111.713 259.574 110.4 257.64C109.029 255.63 107.825 253.511 106.8 251.304C105.681 248.942 104.843 246.457 104.304 243.9C104.214 243.384 104.214 242.856 104.304 242.34V241.992C104.57 239.991 105.003 238.016 105.6 236.088C106.128 234.348 106.728 232.716 107.34 231.096C108.54 227.88 109.872 224.796 111.252 221.76C112.632 218.724 114.072 215.76 115.56 212.772C117.048 209.784 118.584 206.916 120.264 203.988C121.191 202.416 122.692 201.265 124.451 200.778C126.21 200.291 128.09 200.505 129.693 201.377C131.297 202.248 132.5 203.707 133.049 205.448C133.598 207.189 133.45 209.074 132.636 210.708L132.6 210.756Z" fill="#B55B52"/>
<path d="M129.264 265.992L127.632 264.96L123 261.984L119.7 266.904C120.9 271.704 125.7 273.996 125.7 273.996L127.536 274.416C128.172 274.579 128.846 274.494 129.422 274.177C129.997 273.861 130.43 273.337 130.632 272.712L131.16 271.296C131.461 270.326 131.438 269.284 131.096 268.328C130.755 267.371 130.112 266.552 129.264 265.992Z" fill="#B55B52"/>
<path d="M221.436 244.908L243.168 232.416C243.506 232.216 243.883 232.091 244.274 232.047C244.664 232.004 245.059 232.043 245.433 232.164C245.807 232.284 246.152 232.482 246.444 232.744C246.736 233.007 246.969 233.329 247.128 233.688L249.012 237.756C249.354 238.517 249.405 239.377 249.155 240.174C248.905 240.97 248.372 241.647 247.656 242.076L225.924 254.556C225.59 254.758 225.217 254.887 224.83 254.936C224.443 254.984 224.05 254.951 223.677 254.838C223.303 254.724 222.958 254.534 222.663 254.279C222.368 254.024 222.13 253.709 221.964 253.356L220.08 249.288C219.721 248.52 219.661 247.646 219.911 246.836C220.162 246.026 220.706 245.339 221.436 244.908Z" fill="#F5520A"/>
<path d="M226.476 249.732L225.204 250.464L225.312 251.196L224.172 251.856L223.764 247.272L224.964 246.576L228.084 249.588L226.884 250.26L226.476 249.732ZM225.852 249.048L224.82 247.92L225.06 249.504L225.852 249.048Z" fill="white"/>
<path d="M230.064 246.504L231.192 246.252C231.245 246.55 231.245 246.854 231.192 247.152C231.136 247.416 231.026 247.665 230.868 247.884C230.667 248.135 230.418 248.343 230.136 248.496C229.816 248.697 229.455 248.824 229.08 248.868C228.747 248.885 228.418 248.793 228.144 248.604C227.782 248.361 227.501 248.014 227.34 247.608C227.058 247.078 226.985 246.461 227.136 245.88C227.339 245.33 227.736 244.873 228.252 244.596C228.606 244.36 229.027 244.246 229.452 244.272C229.837 244.337 230.188 244.532 230.448 244.824L229.572 245.628C229.504 245.555 229.427 245.491 229.344 245.436C229.246 245.379 229.133 245.353 229.02 245.364C228.902 245.366 228.786 245.399 228.684 245.46C228.56 245.523 228.454 245.617 228.376 245.732C228.298 245.848 228.252 245.981 228.24 246.12C228.235 246.409 228.305 246.695 228.444 246.948C228.547 247.26 228.749 247.53 229.02 247.716C229.121 247.756 229.231 247.772 229.339 247.762C229.448 247.751 229.552 247.715 229.644 247.656C229.832 247.557 229.974 247.39 230.04 247.188C230.107 246.966 230.116 246.73 230.064 246.504Z" fill="white"/>
<path d="M234 244.236L235.128 243.984C235.193 244.28 235.193 244.588 235.128 244.884C235.083 245.155 234.972 245.41 234.804 245.628C234.603 245.879 234.354 246.087 234.072 246.24C233.756 246.44 233.399 246.567 233.028 246.612C232.695 246.629 232.366 246.537 232.092 246.348C231.723 246.104 231.438 245.752 231.276 245.34C230.994 244.814 230.926 244.199 231.084 243.624C231.273 243.066 231.674 242.605 232.2 242.34C232.553 242.103 232.975 241.989 233.4 242.016C233.786 242.078 234.138 242.274 234.396 242.568L233.508 243.372C233.449 243.291 233.37 243.225 233.28 243.18C233.183 243.12 233.069 243.095 232.956 243.108C232.838 243.112 232.722 243.145 232.62 243.204C232.499 243.269 232.396 243.364 232.32 243.479C232.245 243.594 232.199 243.727 232.188 243.864C232.197 244.17 232.271 244.471 232.405 244.746C232.54 245.022 232.732 245.265 232.968 245.46C233.069 245.499 233.179 245.515 233.287 245.504C233.396 245.494 233.5 245.458 233.592 245.4C233.78 245.301 233.922 245.134 233.988 244.932C234.051 244.705 234.055 244.465 234 244.236Z" fill="white"/>
<path d="M234.468 241.128L237.468 239.4L237.84 240.216L235.968 241.296L236.244 241.896L237.984 240.9L238.344 241.668L236.604 242.664L236.952 243.42L238.884 242.304L239.28 243.168L236.232 244.92L234.468 241.128Z" fill="white"/>
<path d="M238.116 239.028L239.976 237.96C240.127 237.857 240.297 237.784 240.476 237.747C240.656 237.71 240.84 237.709 241.02 237.744C241.182 237.797 241.33 237.886 241.453 238.005C241.575 238.123 241.669 238.268 241.728 238.428C241.814 238.595 241.866 238.778 241.881 238.965C241.895 239.153 241.872 239.342 241.812 239.52C241.649 239.915 241.346 240.236 240.96 240.42L240.348 240.768L241.008 242.184L239.88 242.832L238.116 239.028ZM240 240L240.276 239.844C240.445 239.767 240.584 239.636 240.672 239.472C240.698 239.411 240.712 239.346 240.712 239.28C240.712 239.214 240.698 239.149 240.672 239.088C240.62 238.98 240.53 238.895 240.42 238.848C240.334 238.835 240.246 238.838 240.162 238.859C240.078 238.88 239.998 238.917 239.928 238.968L239.616 239.16L240 240Z" fill="white"/>
<path d="M241.512 237.072L244.92 235.128L245.352 236.064L244.152 236.712L245.484 239.58L244.368 240.216L243.036 237.36L241.836 238.008L241.512 237.072Z" fill="white"/>
<path d="M214.452 246.876L210.852 248.508C210.146 248.821 209.593 249.4 209.312 250.119C209.031 250.838 209.045 251.639 209.352 252.348L210.636 255.36C210.797 255.721 211.041 256.039 211.347 256.289C211.653 256.54 212.014 256.714 212.4 256.8C215.472 257.436 219.9 255.672 223.08 254.076C223.6 253.822 224.061 253.46 224.43 253.014C224.8 252.568 225.07 252.048 225.223 251.49C225.377 250.931 225.409 250.347 225.319 249.775C225.229 249.202 225.018 248.656 224.7 248.172L223.308 246.036C222.717 245.149 221.804 244.527 220.762 244.303C219.72 244.078 218.631 244.27 217.728 244.836L214.452 246.876Z" fill="#B55B52"/>
<path d="M126.42 198.408C120.108 201.204 114.336 207.864 109.62 220.176C111.144 225.252 126.744 233.58 126.744 233.58C126.744 233.58 146.208 192.288 126.42 198.408Z" fill="#263238"/>
<path d="M178.524 214.176C178.464 218.76 186.036 229.356 177.324 235.5C176.568 244.752 175.536 253.86 173.556 269.04H126.948C131.376 252.24 127.548 240.948 120.444 211.44C120.04 209.853 119.984 208.197 120.279 206.587C120.574 204.976 121.214 203.448 122.154 202.107C123.094 200.766 124.312 199.643 125.725 198.817C127.139 197.99 128.714 197.478 130.344 197.316C132.192 197.124 134.16 196.968 136.176 196.872C143.219 196.373 150.289 196.373 157.332 196.872C159.624 197.088 161.988 197.376 164.256 197.688C168.221 198.257 171.848 200.239 174.469 203.268C177.09 206.297 178.53 210.17 178.524 214.176Z" fill="#263238"/>
<path d="M157.512 195.42C146.772 192.684 123.768 193.02 119.58 196.248C115.392 199.476 124.2 204.996 124.704 205.44C121.668 207.132 124.704 215.892 137.316 218.304C149.928 220.716 152.712 205.104 156.36 201.828C158.22 200.16 159.24 197.58 157.512 195.42Z" fill="#F5520A"/>
<path opacity="0.2" d="M126.42 205.068C132.732 205.932 146.22 202.932 150.816 201.528C144.936 204.672 129.9 210.396 126.42 205.068Z" fill="black"/>
<path d="M177.084 208.62C177.732 211.824 178.368 215.184 179.088 218.448C179.808 221.712 180.504 225.012 181.26 228.24C182.016 231.468 182.856 234.672 183.768 237.744C184.224 239.28 184.74 240.78 185.244 242.184C185.697 243.458 186.243 244.697 186.876 245.892L184.476 243.72C184.476 243.72 184.56 243.72 184.596 243.792C184.632 243.864 184.932 243.924 185.1 244.008L186.624 244.464C187.74 244.776 189.024 245.04 190.224 245.292C192.744 245.772 195.372 246.24 198.012 246.648L206.016 247.908C208.68 248.364 211.392 248.76 214.056 249.24C214.886 249.391 215.634 249.833 216.165 250.488C216.697 251.142 216.976 251.966 216.953 252.808C216.929 253.651 216.605 254.458 216.039 255.082C215.472 255.707 214.701 256.107 213.864 256.212C211.068 256.56 208.32 256.74 205.536 256.944C202.752 257.148 199.98 257.196 197.136 257.22C194.292 257.244 191.52 257.22 188.628 256.992C187.176 256.884 185.712 256.764 184.152 256.536C183.36 256.428 182.556 256.284 181.668 256.08C181.2 255.948 180.792 255.864 180.228 255.672C179.947 255.59 179.671 255.494 179.4 255.384L178.416 254.94C177.563 254.54 176.834 253.918 176.304 253.14L176.064 252.768C174.919 251.017 173.912 249.179 173.052 247.272C172.236 245.508 171.576 243.768 170.928 242.052C169.656 238.596 168.6 235.176 167.652 231.744C166.704 228.312 165.864 224.892 165.096 221.46C164.328 218.028 163.656 214.62 163.104 211.044C162.813 209.224 163.247 207.362 164.312 205.858C165.378 204.354 166.991 203.328 168.805 203C170.619 202.671 172.489 203.067 174.015 204.102C175.54 205.137 176.599 206.729 176.964 208.536L177.084 208.62Z" fill="#B55B52"/>
<path d="M168.228 198.744C173.976 201.6 179.676 207.144 182.04 219.84C180.552 224.868 160.008 234.552 160.008 234.552C160.008 234.552 148.572 191.4 168.228 198.744Z" fill="#263238"/>
<path d="M167.412 168C167.304 168.912 167.7 169.728 168.3 169.812C168.9 169.896 169.5 169.248 169.596 168.336C169.692 167.424 169.308 166.608 168.708 166.512C168.108 166.416 167.532 167.088 167.412 168Z" fill="#263238"/>
<path d="M168.444 166.524L170.724 166.236C170.724 166.236 169.38 167.772 168.444 166.524Z" fill="#263238"/>
<path d="M167.676 168.996C168.236 171.213 169.091 173.344 170.22 175.332C169.703 175.591 169.135 175.734 168.557 175.75C167.978 175.767 167.403 175.657 166.872 175.428L167.676 168.996Z" fill="#A02724"/>
<path d="M169.548 161.712C169.684 161.709 169.813 161.653 169.908 161.556C170.008 161.453 170.063 161.315 170.063 161.172C170.063 161.029 170.008 160.891 169.908 160.788C169.291 160.162 168.534 159.691 167.699 159.416C166.865 159.14 165.976 159.068 165.108 159.204C165.039 159.219 164.973 159.249 164.916 159.29C164.858 159.331 164.809 159.384 164.773 159.444C164.736 159.504 164.711 159.572 164.701 159.642C164.69 159.712 164.694 159.783 164.712 159.852C164.746 159.993 164.835 160.115 164.958 160.192C165.082 160.268 165.23 160.293 165.372 160.26C166.056 160.169 166.751 160.239 167.403 160.464C168.055 160.689 168.646 161.063 169.128 161.556C169.182 161.611 169.248 161.654 169.321 161.681C169.393 161.708 169.471 161.718 169.548 161.712Z" fill="#263238"/>
<path d="M137.388 160.284C136.656 171.6 136.116 176.364 140.988 183C148.32 192.96 162.204 191.76 166.188 180.972C169.788 171.264 170.4 154.392 160.116 148.236C157.904 146.868 155.372 146.103 152.773 146.017C150.173 145.931 147.596 146.527 145.298 147.745C143 148.963 141.061 150.761 139.673 152.961C138.286 155.161 137.498 157.685 137.388 160.284Z" fill="#B55B52"/>
<path d="M159.6 170.496C167.304 167.496 166.284 158.904 162.288 155.496C170.1 158.7 175.488 156.204 169.584 147.696C163.68 139.188 131.376 137.4 135.84 150.6C121.44 145.968 125.664 165.132 126.42 177.696C116.004 188.196 141.924 197.304 158.316 192C174.708 186.696 159.6 170.496 159.6 170.496Z" fill="#263238"/>
<path d="M156.648 168.912C157.548 171.792 157.848 173.028 159.6 174.408C162.216 176.484 165.276 175.368 165.192 172.428C165.12 169.776 163.668 165.516 160.728 164.568C157.788 163.62 155.748 166.032 156.648 168.912Z" fill="#B55B52"/>
<path d="M173.544 269.04C173.544 269.04 175.188 329.196 177.384 368.784C179.712 405.096 182.7 490.044 182.7 490.044L173.532 490.524C173.532 490.524 153.216 419.052 154.08 375.864C130.236 315.456 138.804 270.852 138.804 270.852L173.544 269.04Z" fill="#B55B52"/>
<path d="M182.016 486.252C182.22 486.105 182.466 486.025 182.718 486.025C182.97 486.025 183.216 486.105 183.42 486.252C187.825 489.534 193.167 491.313 198.66 491.328C204.756 491.592 203.244 494.928 194.52 496.032C184.272 497.316 182.064 499.416 178.752 500.256C175.44 501.096 172.752 498.564 172.872 491.604C172.878 491.365 172.956 491.133 173.095 490.939C173.234 490.744 173.428 490.596 173.652 490.512C176.595 489.419 179.401 487.989 182.016 486.252Z" fill="#263238"/>
<path d="M161.364 269.04C161.364 269.04 144.564 340.236 134.832 373.368C124.596 408.168 116.496 487.584 116.544 490.224H108.612C108.612 490.224 98.352 425.856 111.012 373.344C112.212 288.144 126.9 269.04 126.9 269.04H161.364Z" fill="#B55B52"/>
<path d="M116.76 487.344C116.967 487.256 117.198 487.24 117.416 487.299C117.633 487.358 117.825 487.488 117.96 487.668C120.012 490.32 121.56 493.272 127.56 495.864C132.564 498.012 129.804 500.94 121.944 499.86C112.716 498.6 112.596 500.1 109.476 500.1C106.356 500.1 104.904 497.004 107.172 490.272C107.246 490.049 107.378 489.85 107.556 489.696C107.733 489.541 107.949 489.438 108.18 489.396C111.113 489.065 113.994 488.376 116.76 487.344Z" fill="#263238"/>
<path d="M108.132 357.072C107.196 365.868 105.468 384.936 105.468 384.936C105.468 384.936 133.068 390.6 181.452 387.756C181.2 381.948 181.152 373.548 181.152 373.548L108.132 357.072Z" fill="#263238"/>
<path d="M173.544 268.8C180.251 307.569 183.316 346.88 182.7 386.22C156.52 385.99 130.414 383.399 104.7 378.48C104.7 378.48 106.116 296.088 126.948 268.812C138.984 265.968 173.268 267.876 173.544 268.8Z" fill="#F5520A"/>
<path opacity="0.2" d="M124.992 301.596C138.996 312.204 149.616 314.208 149.616 314.208C149.616 314.208 138.156 318.264 124.992 301.596Z" fill="black"/>
<path d="M441.432 478.128H441.36C441.322 478.121 441.285 478.106 441.253 478.085C441.221 478.063 441.193 478.035 441.172 478.003C441.15 477.97 441.136 477.934 441.129 477.895C441.122 477.857 441.123 477.818 441.132 477.78C447.36 448.584 444.444 420.876 432.48 395.4C425.133 379.56 414.521 365.452 401.34 354C401.311 353.973 401.288 353.941 401.273 353.904C401.257 353.868 401.249 353.829 401.249 353.79C401.249 353.751 401.257 353.712 401.273 353.676C401.288 353.639 401.311 353.607 401.34 353.58C401.398 353.524 401.475 353.493 401.556 353.493C401.637 353.493 401.714 353.524 401.772 353.58C415.013 365.074 425.678 379.235 433.068 395.136C445.068 420.72 448.02 448.572 441.768 477.936C441.744 478.002 441.697 478.058 441.635 478.093C441.574 478.129 441.502 478.141 441.432 478.128Z" fill="#263238"/>
<path d="M452.652 423.444C450.656 427.759 447.606 431.501 443.784 434.328C443.135 429.601 443.8 424.786 445.704 420.411C447.609 416.036 450.681 412.27 454.584 409.524C455.12 414.253 454.456 419.04 452.652 423.444Z" fill="#263238"/>
<path d="M424.704 387.156C428.603 389.875 431.756 393.531 433.872 397.788C429.102 397.602 424.477 396.105 420.503 393.461C416.529 390.816 413.361 387.128 411.348 382.8C416.096 383.104 420.69 384.602 424.704 387.156Z" fill="#263238"/>
<path d="M420 357.42C420.642 362.129 420.089 366.924 418.392 371.364C415.301 367.733 413.266 363.323 412.51 358.614C411.755 353.905 412.308 349.08 414.108 344.664C417.112 348.354 419.138 352.741 420 357.42Z" fill="#F5520A"/>
<path d="M403.848 353.556C403.9 354.016 403.814 354.481 403.601 354.893C403.389 355.304 403.059 355.643 402.653 355.867C402.248 356.091 401.785 356.189 401.323 356.15C400.862 356.11 400.423 355.935 400.061 355.645C399.699 355.356 399.432 354.966 399.292 354.524C399.152 354.083 399.146 353.61 399.276 353.165C399.405 352.72 399.663 352.324 400.018 352.026C400.373 351.728 400.808 351.542 401.268 351.492C401.881 351.44 402.49 351.625 402.97 352.009C403.45 352.393 403.764 352.947 403.848 353.556Z" fill="#F5520A"/>
<path d="M448.476 472.164C448.417 472.164 448.36 472.147 448.311 472.115C448.262 472.083 448.223 472.038 448.2 471.984C438.108 447.984 436.08 423.72 442.2 399.912C445.93 385.14 452.738 371.322 462.18 359.364C462.208 359.335 462.242 359.312 462.279 359.296C462.316 359.28 462.356 359.272 462.396 359.272C462.436 359.272 462.476 359.28 462.513 359.296C462.55 359.312 462.584 359.335 462.612 359.364C462.667 359.42 462.698 359.495 462.698 359.574C462.698 359.653 462.667 359.728 462.612 359.784C453.244 371.666 446.493 385.394 442.8 400.068C436.728 423.732 438.732 447.852 448.8 471.744C448.816 471.781 448.824 471.821 448.823 471.861C448.823 471.901 448.815 471.941 448.8 471.978C448.784 472.014 448.761 472.048 448.732 472.076C448.704 472.104 448.669 472.126 448.632 472.14L448.476 472.164Z" fill="#263238"/>
<path d="M434.748 446.256C436.647 448.244 439.015 449.722 441.636 450.552C441.11 447.842 439.847 445.33 437.987 443.291C436.126 441.252 433.739 439.766 431.088 438.996C431.679 441.685 432.938 444.182 434.748 446.256Z" fill="#F5520A"/>
<path d="M443.472 401.184C441.789 403.773 440.786 406.745 440.556 409.824C443.378 408.546 445.793 406.516 447.539 403.957C449.285 401.399 450.294 398.409 450.456 395.316C447.672 396.655 445.27 398.673 443.472 401.184Z" fill="#F5520A"/>
<path d="M442.992 383.208C443.213 385.732 444.067 388.159 445.476 390.264C446.659 388.01 447.197 385.473 447.032 382.932C446.867 380.392 446.005 377.946 444.54 375.864C443.41 378.141 442.877 380.668 442.992 383.208Z" fill="#F5520A"/>
<path d="M458.04 367.968C455.923 369.362 454.194 371.269 453.012 373.512C455.552 373.476 458.034 372.742 460.184 371.389C462.335 370.037 464.072 368.118 465.204 365.844C462.675 365.934 460.21 366.665 458.04 367.968Z" fill="#F5520A"/>
<path d="M460.392 359.712C460.422 360.113 460.57 360.495 460.817 360.811C461.065 361.128 461.401 361.363 461.782 361.488C462.164 361.614 462.574 361.623 462.961 361.514C463.348 361.406 463.694 361.186 463.955 360.881C464.216 360.576 464.381 360.2 464.428 359.801C464.476 359.402 464.404 358.998 464.221 358.641C464.039 358.283 463.754 357.987 463.404 357.791C463.053 357.595 462.652 357.508 462.252 357.54C461.718 357.583 461.223 357.835 460.874 358.242C460.526 358.649 460.352 359.178 460.392 359.712Z" fill="#F5520A"/>
<path d="M467.736 491.7L466.608 491.28C467.366 489.176 467.74 486.952 467.712 484.716H468.912C468.939 487.095 468.541 489.461 467.736 491.7Z" fill="#F5520A"/>
<path d="M466.8 478.44C465.537 474.142 463.032 470.314 459.6 467.436L460.368 466.512C463.968 469.548 466.59 473.581 467.904 478.104L466.8 478.44Z" fill="#F5520A"/>
<path d="M453.6 467.028L456 457.056H434.136L436.536 467.028C433.2 468.627 430.384 471.135 428.411 474.265C426.439 477.394 425.391 481.017 425.388 484.716C425.388 495.516 434.184 499.488 445.032 499.488C455.88 499.488 464.676 495.564 464.676 484.716C464.68 481.025 463.642 477.407 461.683 474.278C459.724 471.15 456.922 468.637 453.6 467.028Z" fill="#F5520A"/>
</svg>
