<svg width="600" height="600" viewBox="0 0 600 600" fill="none" xmlns="http://www.w3.org/2000/svg">
<path d="M600 458.88H0V459.18H600V458.88Z" fill="#EBEBEB"/>
<path d="M539.88 478.188H500.136V478.488H539.88V478.188Z" fill="#EBEBEB"/>
<path d="M397.464 481.452H387.036V481.752H397.464V481.452Z" fill="#EBEBEB"/>
<path d="M498.936 467.052H475.908V467.352H498.936V467.052Z" fill="#EBEBEB"/>
<path d="M114.78 469.068H62.952V469.368H114.78V469.068Z" fill="#EBEBEB"/>
<path d="M133.068 469.068H125.472V469.368H133.068V469.068Z" fill="#EBEBEB"/>
<path d="M270.18 474.132H157.764V474.432H270.18V474.132Z" fill="#EBEBEB"/>
<path d="M284.4 405.36H52.692C50.8768 405.357 49.1371 404.634 47.8547 403.349C46.5723 402.064 45.852 400.323 45.852 398.508V72.792C45.8678 70.9872 46.595 69.2616 47.8757 67.9899C49.1564 66.7181 50.8872 66.0031 52.692 66H284.4C286.217 66 287.96 66.7219 289.245 68.0069C290.53 69.2919 291.252 71.0347 291.252 72.852V398.508C291.252 400.325 290.53 402.068 289.245 403.353C287.96 404.638 286.217 405.36 284.4 405.36ZM52.692 66.24C50.9564 66.2432 49.2929 66.9349 48.0668 68.1633C46.8406 69.3917 46.152 71.0564 46.152 72.792V398.508C46.152 400.244 46.8406 401.908 48.0668 403.137C49.2929 404.365 50.9564 405.057 52.692 405.06H284.4C286.137 405.057 287.801 404.366 289.029 403.137C290.258 401.909 290.949 400.245 290.952 398.508V72.792C290.949 71.0553 290.258 69.3906 289.029 68.1625C287.801 66.9345 286.137 66.2432 284.4 66.24H52.692Z" fill="#EBEBEB"/>
<path d="M543.972 405.36H312.252C310.436 405.357 308.695 404.634 307.41 403.35C306.126 402.065 305.403 400.324 305.4 398.508V72.792C305.419 70.9861 306.149 69.2605 307.431 67.9891C308.714 66.7177 310.446 66.0031 312.252 66H543.972C545.775 66.0062 547.502 66.7227 548.781 67.9941C550.059 69.2654 550.784 70.9893 550.8 72.792V398.508C550.8 400.321 550.081 402.06 548.802 403.345C547.522 404.629 545.785 405.354 543.972 405.36ZM312.252 66.24C310.515 66.2432 308.851 66.9345 307.623 68.1625C306.394 69.3906 305.703 71.0553 305.7 72.792V398.508C305.703 400.245 306.394 401.909 307.623 403.137C308.851 404.366 310.515 405.057 312.252 405.06H543.972C545.709 405.057 547.373 404.366 548.601 403.137C549.829 401.909 550.521 400.245 550.524 398.508V72.792C550.521 71.0553 549.829 69.3906 548.601 68.1625C547.373 66.9345 545.709 66.2432 543.972 66.24H312.252Z" fill="#EBEBEB"/>
<path d="M431.184 228.3C465.925 228.3 494.088 200.137 494.088 165.396C494.088 130.655 465.925 102.492 431.184 102.492C396.443 102.492 368.28 130.655 368.28 165.396C368.28 200.137 396.443 228.3 431.184 228.3Z" fill="#E0E0E0"/>
<path d="M426.408 228.3C461.149 228.3 489.312 200.137 489.312 165.396C489.312 130.655 461.149 102.492 426.408 102.492C391.667 102.492 363.504 130.655 363.504 165.396C363.504 200.137 391.667 228.3 426.408 228.3Z" fill="#F5F5F5"/>
<path d="M426.408 223.536C458.518 223.536 484.548 197.506 484.548 165.396C484.548 133.286 458.518 107.256 426.408 107.256C394.298 107.256 368.268 133.286 368.268 165.396C368.268 197.506 394.298 223.536 426.408 223.536Z" fill="white"/>
<path d="M436.32 207.708C436.004 207.708 435.696 207.602 435.448 207.406C435.2 207.21 435.025 206.936 434.952 206.628L425.04 165.732C424.97 165.375 425.04 165.004 425.236 164.697C425.433 164.39 425.739 164.171 426.093 164.084C426.447 163.998 426.82 164.051 427.136 164.232C427.452 164.414 427.685 164.711 427.788 165.06L437.688 205.968C437.775 206.332 437.714 206.716 437.518 207.036C437.322 207.355 437.008 207.584 436.644 207.672C436.538 207.696 436.429 207.708 436.32 207.708Z" fill="#F5F5F5"/>
<path d="M426.408 168.216C426.038 168.216 425.671 168.143 425.329 168.001C424.987 167.859 424.677 167.651 424.416 167.388L390.396 133.368C390.134 133.106 389.927 132.794 389.786 132.452C389.644 132.109 389.572 131.742 389.573 131.372C389.574 130.623 389.872 129.906 390.402 129.378C390.932 128.85 391.65 128.554 392.398 128.555C393.147 128.556 393.864 128.854 394.392 129.384L426.408 161.412L445.092 142.728C445.622 142.2 446.34 141.904 447.088 141.905C447.837 141.906 448.554 142.204 449.082 142.734C449.61 143.264 449.907 143.982 449.905 144.73C449.904 145.479 449.606 146.196 449.076 146.724L428.4 167.388C427.872 167.917 427.155 168.215 426.408 168.216Z" fill="#EBEBEB"/>
<path d="M275.28 385.2H265.8V450.12H275.28V385.2Z" fill="#F0F0F0"/>
<path d="M269.016 450.12H74.04V458.88H269.016V450.12Z" fill="#F0F0F0"/>
<path d="M265.8 385.2H67.788V450.12H265.8V385.2Z" fill="#F5F5F5"/>
<path d="M252.984 396.504H80.592V433.584H252.984V396.504Z" fill="#F0F0F0"/>
<path d="M208.728 395.256H124.848C123.277 395.256 122.004 396.529 122.004 398.1V398.628C122.004 400.199 123.277 401.472 124.848 401.472H208.728C210.299 401.472 211.572 400.199 211.572 398.628V398.1C211.572 396.529 210.299 395.256 208.728 395.256Z" fill="#F5F5F5"/>
<path d="M265.8 379.404H63.444V385.2H265.8V379.404Z" fill="#F0F0F0"/>
<path d="M279.828 379.404H265.8V385.2H279.828V379.404Z" fill="#E6E6E6"/>
<path d="M515.628 316.656H497.148V458.88H515.628V316.656Z" fill="#F0F0F0"/>
<path d="M497.148 316.656H335.4V458.88H497.148V316.656Z" fill="#F5F5F5"/>
<path d="M475.932 370.332H333.924V446.4H475.932V370.332Z" fill="#FAFAFA"/>
<path d="M475.932 337.212H333.924V362.256H475.932V337.212Z" fill="#FAFAFA"/>
<g style="mix-blend-mode:multiply" opacity="0.7">
<path d="M477.204 370.32H475.932V446.388H477.204V370.32Z" fill="#E6E6E6"/>
</g>
<g style="mix-blend-mode:multiply" opacity="0.7">
<path d="M477.204 337.212H475.932V362.256H477.204V337.212Z" fill="#E6E6E6"/>
</g>
<g style="mix-blend-mode:multiply" opacity="0.7">
<path d="M515.628 322.656H334.992V325.872H515.628V322.656Z" fill="#E6E6E6"/>
</g>
<path d="M517.788 314.712H497.148V324.012H517.788V314.712Z" fill="#F0F0F0"/>
<path d="M497.148 314.712H333.24V324.012H497.148V314.712Z" fill="#F5F5F5"/>
<path d="M394.728 287.328C393.613 285.571 392.877 283.601 392.568 281.544C392.243 279.489 392.138 277.405 392.256 275.328C392.513 271.195 393.395 267.125 394.872 263.256C395.575 261.336 396.376 259.454 397.272 257.616C398.232 255.816 399.192 254.016 400.272 252.3C401.352 250.584 402.54 248.928 403.764 247.32C404.988 245.712 406.368 244.212 407.796 242.76C407.1 244.692 406.272 246.516 405.396 248.34C404.52 250.164 403.836 252 402.996 253.776L400.668 259.176L399.6 261.9L399.048 263.256L398.568 264.624C397.197 268.23 396.11 271.937 395.316 275.712C394.904 277.598 394.623 279.511 394.476 281.436C394.297 283.402 394.382 285.384 394.728 287.328Z" fill="#E6E6E6"/>
<path d="M371.436 290.508C371.59 287.611 371.336 284.706 370.68 281.88C370.066 279.303 368.863 276.904 367.164 274.872C365.353 272.858 363.21 271.169 360.828 269.88C358.368 268.452 355.656 267.336 352.86 266.016C355.967 265.685 359.109 266.02 362.076 267C363.609 267.502 365.075 268.187 366.444 269.04C367.843 269.941 369.108 271.036 370.2 272.292C372.379 274.862 373.645 278.082 373.8 281.448C373.965 284.64 373.14 287.804 371.436 290.508Z" fill="#E6E6E6"/>
<path d="M372.48 290.088C372.378 286.711 372.062 283.344 371.532 280.008C371.037 276.828 370.154 273.721 368.904 270.756C367.653 267.841 365.935 265.149 363.816 262.788C361.529 260.347 358.987 258.158 356.232 256.26C359.781 256.81 363.128 258.265 365.952 260.484C368.846 262.783 371.119 265.77 372.564 269.172C373.989 272.52 374.696 276.13 374.64 279.768C374.661 283.322 373.925 286.84 372.48 290.088Z" fill="#E6E6E6"/>
<path d="M393.132 283.956C390.525 280.574 388.311 276.906 386.532 273.024C384.723 269.152 383.234 265.139 382.08 261.024C380.912 256.898 380.137 252.672 379.764 248.4C379.371 244.129 379.569 239.825 380.352 235.608C381.228 239.82 381.9 243.888 382.86 247.932C383.82 251.976 384.78 255.96 385.92 259.932C387.06 263.904 388.212 267.876 389.448 271.848C390.684 275.82 391.944 279.852 393.132 283.956Z" fill="#E6E6E6"/>
<path d="M392.052 283.656C389.081 280.75 386.434 277.531 384.156 274.056C381.875 270.59 379.869 266.951 378.156 263.172C376.419 259.384 375.037 255.443 374.028 251.4C373.006 247.35 372.542 243.18 372.648 239.004C374.16 242.916 375.468 246.708 377.016 250.44C378.564 254.172 380.1 257.868 381.816 261.528C383.532 265.188 385.188 268.836 386.94 272.508C388.692 276.18 390.384 279.84 392.052 283.656Z" fill="#E6E6E6"/>
<path d="M396.516 287.496C393.151 285.714 390.026 283.513 387.216 280.944C384.386 278.393 381.802 275.58 379.5 272.544C377.151 269.524 375.139 266.257 373.5 262.8C371.86 259.346 370.767 255.658 370.26 251.868C372.324 255.096 374.148 258.252 376.26 261.264C378.372 264.276 380.412 267.264 382.656 270.132C384.9 273 387.144 275.88 389.472 278.736C391.8 281.592 394.164 284.496 396.516 287.496Z" fill="#E6E6E6"/>
<path d="M390 283.68C386.731 282.334 383.7 280.47 381.024 278.16C378.324 275.889 375.907 273.303 373.824 270.456C372.765 269.036 371.788 267.558 370.896 266.028C370.027 264.476 369.254 262.874 368.58 261.228C367.2 257.969 366.353 254.508 366.072 250.98C367.956 253.992 369.504 256.98 371.376 259.788C372.216 261.24 373.224 262.584 374.1 264C374.976 265.416 375.996 266.736 377.028 268.056C379.012 270.728 381.092 273.348 383.268 275.916C385.38 278.52 387.6 281.052 390 283.68Z" fill="#E6E6E6"/>
<path d="M395.112 285.732C393.56 284.636 392.319 283.156 391.512 281.436C390.678 279.719 390.092 277.893 389.772 276.012C389.172 272.281 389.278 268.471 390.084 264.78C390.472 262.969 390.953 261.178 391.524 259.416C392.208 257.7 392.82 255.96 393.636 254.316C394.452 252.672 395.316 251.064 396.288 249.516C397.288 247.982 398.365 246.5 399.516 245.076C399.132 246.888 398.592 248.604 398.076 250.32C397.56 252.036 397.128 253.764 396.564 255.432C396 257.1 395.664 258.828 395.148 260.496L394.56 263.028C394.356 263.868 394.116 264.708 393.996 265.56C393.272 268.892 392.902 272.291 392.892 275.7C392.877 277.403 393.03 279.103 393.348 280.776C393.648 282.517 394.244 284.193 395.112 285.732Z" fill="#E6E6E6"/>
<path d="M392.88 281.904C390.249 279.092 388.343 275.682 387.324 271.968C386.216 268.219 385.861 264.287 386.28 260.4C386.34 259.428 386.58 258.48 386.736 257.52L387.012 256.08L387.432 254.688C387.744 253.764 388.008 252.84 388.356 251.94C388.704 251.04 389.16 250.176 389.556 249.312L390.204 248.028L390.984 246.828L392.568 244.428C393.752 242.951 395.031 241.552 396.396 240.24C395.772 242.052 394.944 243.696 394.272 245.4L393.324 247.956L392.844 249.156L392.46 250.452C392.208 251.304 391.944 252.156 391.668 252.996L391.08 255.576L390.768 256.86L390.588 258.156C390.48 259.02 390.264 259.884 390.216 260.748C389.85 264.241 389.898 267.766 390.36 271.248C390.805 274.882 391.65 278.456 392.88 281.904Z" fill="#E6E6E6"/>
<path d="M387.816 280.44L370.62 265.14L373.164 285.912L387.816 280.44Z" fill="#E6E6E6"/>
<path d="M354.672 277.644H404.568L398.028 314.712H361.212L354.672 277.644Z" fill="#F5F5F5"/>
<path d="M385.848 277.644H404.568L398.028 314.712H388.2L385.848 277.644Z" fill="#EBEBEB"/>
<path d="M448.632 287.4C448.867 285.761 448.798 284.094 448.428 282.48C448.111 280.936 447.615 279.434 446.952 278.004C445.607 275.135 443.901 272.449 441.876 270.012C441.42 269.352 440.832 268.812 440.316 268.176C439.8 267.54 439.272 266.976 438.72 266.34C437.52 265.14 436.488 263.94 435.3 262.74C434.112 261.54 432.972 260.34 431.772 259.14C430.572 257.94 429.372 256.74 428.172 255.432C429.792 256.044 431.328 256.8 432.888 257.568C434.402 258.4 435.871 259.309 437.292 260.292C438.008 260.782 438.697 261.311 439.356 261.876C440.028 262.428 440.688 263.004 441.348 263.568C442.627 264.775 443.83 266.062 444.948 267.42C447.252 270.195 448.934 273.432 449.88 276.912C450.335 278.673 450.493 280.498 450.348 282.312C450.266 284.136 449.672 285.899 448.632 287.4Z" fill="#E6E6E6"/>
<path d="M476.688 282.372C475.423 281.282 474.488 279.861 473.988 278.268C473.711 277.448 473.529 276.598 473.448 275.736C473.424 275.296 473.424 274.856 473.448 274.416C473.434 273.977 473.474 273.537 473.568 273.108C474.273 269.694 476.057 266.598 478.656 264.276C479.256 263.688 479.94 263.22 480.576 262.692C481.209 262.166 481.883 261.693 482.592 261.276C483.288 260.868 483.984 260.448 484.704 260.076C485.052 259.884 485.4 259.668 485.772 259.5L486.876 259.032C487.62 258.72 488.364 258.432 489.108 258.144C489.848 257.845 490.61 257.604 491.388 257.424C492.934 257.021 494.5 256.701 496.08 256.464C494.839 257.447 493.545 258.36 492.204 259.2C491.544 259.596 490.92 260.04 490.296 260.496C489.672 260.952 489.096 261.36 488.4 261.78C487.092 262.56 486 263.556 484.8 264.396C484.201 264.816 483.631 265.277 483.096 265.776C482.544 266.256 481.896 266.688 481.44 267.192C479.362 269.029 477.721 271.309 476.64 273.864C476.411 274.507 476.227 275.164 476.088 275.832C475.977 276.527 475.921 277.229 475.92 277.932C475.92 279.445 476.179 280.947 476.688 282.372Z" fill="#E6E6E6"/>
<path d="M475.404 282.372C473.236 279.549 472.056 276.092 472.044 272.532C471.994 268.886 472.922 265.293 474.732 262.128L476.172 259.848C476.724 259.14 477.312 258.468 477.9 257.796L478.8 256.8L479.784 255.936L481.8 254.244C483.225 253.255 484.703 252.346 486.228 251.52C487.793 250.81 489.396 250.185 491.028 249.648C489.828 250.92 488.628 252.048 487.344 253.128C486.06 254.208 485.016 255.444 483.888 256.584C483.36 257.208 482.844 257.784 482.304 258.396L481.5 259.272L480.816 260.232C480.36 260.868 479.856 261.432 479.412 262.104L478.212 264.084C476.69 266.755 475.662 269.677 475.176 272.712C474.679 275.92 474.756 279.191 475.404 282.372Z" fill="#E6E6E6"/>
<path d="M450.168 284.148C451.164 280.44 452.244 276.864 453.288 273.348C454.332 269.832 455.352 266.244 456.288 262.692C457.224 259.14 458.004 255.564 458.688 251.892C459.372 248.22 459.744 244.692 460.068 240.804C461.329 244.469 461.923 248.33 461.82 252.204C461.675 256.061 461.116 259.891 460.152 263.628C459.173 267.342 457.852 270.958 456.204 274.428C454.594 277.901 452.567 281.165 450.168 284.148Z" fill="#E6E6E6"/>
<path d="M451.416 283.548C452.976 279.948 454.656 276.348 456.312 272.904C457.968 269.46 459.636 265.956 461.232 262.476C462.828 258.996 464.364 255.504 465.792 251.964C467.22 248.424 468.444 244.764 469.644 240.996C470.015 244.98 469.727 248.998 468.792 252.888C467.845 256.756 466.532 260.526 464.868 264.144C463.197 267.734 461.243 271.185 459.024 274.464C456.826 277.76 454.275 280.806 451.416 283.548Z" fill="#E6E6E6"/>
<path d="M446.532 288.12C448.872 284.904 451.332 281.868 453.732 278.832C456.132 275.796 458.532 272.832 460.86 269.772C463.188 266.712 465.468 263.676 467.652 260.532C469.836 257.388 471.828 254.148 473.856 250.716C473.325 254.682 472.145 258.533 470.364 262.116C468.58 265.675 466.458 269.054 464.028 272.208C461.596 275.331 458.919 278.257 456.024 280.956C453.131 283.683 449.948 286.085 446.532 288.12Z" fill="#E6E6E6"/>
<path d="M453.876 282.888C456.168 280.02 458.46 277.308 460.716 274.56C462.972 271.812 465.156 269.088 467.292 266.316C469.428 263.544 471.408 260.688 473.292 257.772C475.176 254.856 476.892 251.772 478.74 248.58C478.47 252.269 477.561 255.883 476.052 259.26C474.549 262.632 472.652 265.814 470.4 268.74C468.168 271.651 465.652 274.332 462.888 276.744C460.168 279.181 457.138 281.247 453.876 282.888Z" fill="#E6E6E6"/>
<path d="M448.008 286.236C449.31 283.633 449.938 280.745 449.832 277.836C449.673 275.06 448.963 272.343 447.744 269.844L447.336 268.872L446.82 267.936L445.812 266.04C445.008 264.84 444.288 263.556 443.412 262.32C442.536 261.084 441.744 259.848 440.856 258.612C439.924 257.369 439.054 256.079 438.252 254.748C439.632 255.507 440.97 256.34 442.26 257.244C443.518 258.202 444.72 259.232 445.86 260.328C446.429 260.885 446.962 261.479 447.456 262.104C447.968 262.72 448.472 263.344 448.968 263.976L450.252 266.052L450.864 267.108L451.368 268.236C452.832 271.278 453.374 274.682 452.928 278.028C452.715 279.66 452.168 281.232 451.322 282.644C450.475 284.056 449.347 285.279 448.008 286.236Z" fill="#E6E6E6"/>
<path d="M450.24 282.408C451.227 279.434 451.903 276.366 452.256 273.252C452.58 270.35 452.365 267.412 451.62 264.588C451.246 263.196 450.723 261.848 450.06 260.568C449.4 259.248 448.621 257.991 447.732 256.812C445.822 254.316 443.728 251.965 441.468 249.78C444.683 250.732 447.63 252.426 450.072 254.724C451.345 255.895 452.452 257.236 453.36 258.708C454.296 260.195 455.008 261.813 455.472 263.508C456.376 266.9 456.322 270.477 455.316 273.84C454.407 277.093 452.656 280.048 450.24 282.408Z" fill="#E6E6E6"/>
<path d="M456.108 279.564L474.876 261.54L474.12 279.216L456.108 279.564Z" fill="#E6E6E6"/>
<path d="M435.576 277.644H485.472L478.932 314.712H442.116L435.576 277.644Z" fill="#F5F5F5"/>
<path d="M466.74 277.644H485.472L478.932 314.712H469.104L466.74 277.644Z" fill="#EBEBEB"/>
<path d="M124.644 108.864V303.264C124.644 311.348 121.433 319.101 115.717 324.817C110.001 330.533 102.248 333.744 94.164 333.744H235.764C243.849 333.744 251.603 330.533 257.321 324.817C263.039 319.102 266.253 311.349 266.256 303.264V108.864H124.644Z" fill="#F5F5F5"/>
<path d="M244.032 158.076H152.532V249.576H244.032V158.076Z" fill="#F0F0F0"/>
<path d="M241.224 155.256H149.724V246.756H241.224V155.256Z" fill="white"/>
<path d="M172.188 260.304H148.92V283.572H172.188V260.304Z" fill="white"/>
<path d="M241.212 260.304H217.944V283.572H241.212V260.304Z" fill="white"/>
<path d="M206.7 260.304H183.432V283.572H206.7V260.304Z" fill="white"/>
<path d="M266.28 108.864H124.644V132H266.28V108.864Z" fill="#F0F0F0"/>
<path d="M133.2 101.436V116.292C133.198 116.836 133.304 117.375 133.512 117.878C133.719 118.381 134.024 118.838 134.409 119.223C134.794 119.608 135.251 119.913 135.754 120.12C136.257 120.328 136.796 120.434 137.34 120.432C137.884 120.432 138.422 120.325 138.924 120.117C139.427 119.909 139.883 119.604 140.267 119.219C140.652 118.835 140.957 118.379 141.165 117.876C141.373 117.374 141.48 116.836 141.48 116.292V101.436C141.477 100.339 141.04 99.2878 140.264 98.5121C139.488 97.7364 138.437 97.2992 137.34 97.296C136.242 97.296 135.189 97.7322 134.413 98.5086C133.636 99.285 133.2 100.338 133.2 101.436Z" fill="#E6E6E6"/>
<path d="M249.504 101.436V116.292C249.504 117.39 249.94 118.443 250.717 119.219C251.493 119.996 252.546 120.432 253.644 120.432C254.188 120.434 254.727 120.328 255.23 120.12C255.733 119.913 256.19 119.608 256.575 119.223C256.96 118.838 257.265 118.381 257.472 117.878C257.68 117.375 257.786 116.836 257.784 116.292V101.436C257.784 100.338 257.348 99.285 256.571 98.5086C255.795 97.7322 254.742 97.296 253.644 97.296C252.547 97.2992 251.496 97.7364 250.72 98.5121C249.944 99.2878 249.507 100.339 249.504 101.436Z" fill="#E6E6E6"/>
<path d="M226.236 101.436V116.292C226.236 116.836 226.343 117.374 226.551 117.876C226.759 118.379 227.064 118.835 227.449 119.219C227.833 119.604 228.289 119.909 228.792 120.117C229.294 120.325 229.832 120.432 230.376 120.432C230.92 120.432 231.458 120.325 231.96 120.117C232.463 119.909 232.919 119.604 233.303 119.219C233.688 118.835 233.993 118.379 234.201 117.876C234.409 117.374 234.516 116.836 234.516 116.292V101.436C234.513 100.343 234.079 99.2955 233.308 98.5205C232.538 97.7455 231.493 97.3055 230.4 97.296C229.855 97.2944 229.315 97.4003 228.81 97.6075C228.306 97.8147 227.847 98.1192 227.461 98.5036C227.074 98.888 226.767 99.3449 226.557 99.848C226.347 100.351 226.238 100.891 226.236 101.436Z" fill="#E6E6E6"/>
<path d="M202.968 101.436V116.292C202.966 116.836 203.072 117.375 203.28 117.878C203.487 118.381 203.792 118.838 204.177 119.223C204.562 119.608 205.019 119.913 205.522 120.12C206.025 120.328 206.564 120.434 207.108 120.432C208.199 120.422 209.241 119.982 210.008 119.206C210.775 118.43 211.203 117.383 211.2 116.292V101.436C211.2 100.34 210.765 99.2889 209.992 98.5128C209.218 97.7367 208.168 97.2992 207.072 97.296C205.98 97.3055 204.936 97.7458 204.168 98.5212C203.399 99.2966 202.968 100.344 202.968 101.436Z" fill="#E6E6E6"/>
<path d="M179.7 101.436V116.292C179.698 116.835 179.804 117.373 180.011 117.875C180.218 118.378 180.521 118.834 180.905 119.219C181.288 119.603 181.744 119.908 182.246 120.117C182.747 120.325 183.285 120.432 183.828 120.432C184.372 120.434 184.911 120.328 185.414 120.12C185.917 119.913 186.374 119.608 186.759 119.223C187.144 118.838 187.449 118.381 187.656 117.878C187.864 117.375 187.97 116.836 187.968 116.292V101.436C187.968 100.338 187.532 99.285 186.755 98.5086C185.979 97.7322 184.926 97.296 183.828 97.296C182.732 97.2992 181.682 97.7367 180.908 98.5128C180.135 99.2889 179.7 100.34 179.7 101.436Z" fill="#E6E6E6"/>
<path d="M156.42 101.436V116.292C156.42 116.836 156.527 117.374 156.735 117.876C156.943 118.379 157.248 118.835 157.633 119.219C158.017 119.604 158.473 119.909 158.976 120.117C159.478 120.325 160.016 120.432 160.56 120.432C161.104 120.432 161.642 120.325 162.144 120.117C162.647 119.909 163.103 119.604 163.487 119.219C163.872 118.835 164.177 118.379 164.385 117.876C164.593 117.374 164.7 116.836 164.7 116.292V101.436C164.697 100.339 164.26 99.2878 163.484 98.5121C162.708 97.7364 161.657 97.2992 160.56 97.296C159.463 97.2992 158.412 97.7364 157.636 98.5121C156.86 99.2878 156.423 100.339 156.42 101.436Z" fill="#E6E6E6"/>
<path d="M223.044 320.928C223.044 324.311 224.388 327.556 226.78 329.948C229.172 332.34 232.417 333.684 235.8 333.684H76.428C73.0449 333.684 69.8004 332.34 67.4081 329.948C65.0159 327.556 63.672 324.311 63.672 320.928H223.044Z" fill="#E6E6E6"/>
<path d="M300 513.072C428.499 513.072 532.668 506.99 532.668 499.488C532.668 491.986 428.499 485.904 300 485.904C171.501 485.904 67.332 491.986 67.332 499.488C67.332 506.99 171.501 513.072 300 513.072Z" fill="#F5F5F5"/>
<path opacity="0.2" d="M323.508 384.876C323.508 384.876 235.32 436.944 235.32 486.276H411.72C411.708 436.944 323.508 384.876 323.508 384.876Z" fill="#F5520A"/>
<path opacity="0.2" d="M323.508 447C323.508 447 242.076 467.172 242.076 486.276H404.94C404.94 467.172 323.508 447 323.508 447Z" fill="#F5520A"/>
<path opacity="0.3" d="M334.212 399.252C350.772 415.536 382.956 451.62 382.956 486.276H360.888C360.888 451.62 343.272 415.536 334.212 399.252Z" fill="white"/>
<path opacity="0.2" d="M323.508 384.876C323.508 384.876 235.32 332.808 235.32 283.476H411.72C411.708 332.808 323.508 384.876 323.508 384.876Z" fill="#F5520A"/>
<path opacity="0.2" d="M323.508 380.124C323.508 380.124 278.484 358.524 278.484 338.004H368.544C368.544 358.488 323.508 380.124 323.508 380.124Z" fill="#F5520A"/>
<path opacity="0.3" d="M313.896 370.5C297.348 354.216 265.2 318.132 265.2 283.476H287.268C287.22 318.132 304.8 354.216 313.896 370.5Z" fill="white"/>
<path opacity="0.3" d="M334.212 370.5C350.772 354.216 382.152 313.956 382.956 283.476H377.076C374.316 320.64 347.316 354.744 334.212 370.5Z" fill="white"/>
<path d="M399.732 266.064H389.736V267.264H399.732V266.064Z" fill="#F5520A"/>
<path d="M433.668 282.552H432.468C432.465 278.5 430.855 274.615 427.991 271.749C425.127 268.883 421.244 267.27 417.192 267.264H406.644V266.064H417.192C421.561 266.073 425.748 267.814 428.836 270.904C431.924 273.995 433.662 278.183 433.668 282.552Z" fill="#F5520A"/>
<path d="M417.18 270.264H229.836C223.05 270.264 217.548 275.766 217.548 282.552V284.4C217.548 291.186 223.05 296.688 229.836 296.688H417.18C423.966 296.688 429.468 291.186 429.468 284.4V282.552C429.468 275.766 423.966 270.264 417.18 270.264Z" fill="#F5520A"/>
<path d="M417.18 473.064H229.836C223.05 473.064 217.548 478.565 217.548 485.352V487.2C217.548 493.986 223.05 499.488 229.836 499.488H417.18C423.966 499.488 429.468 493.986 429.468 487.2V485.352C429.468 478.565 423.966 473.064 417.18 473.064Z" fill="#F5520A"/>
<path d="M168.864 365.424L160.728 358.2L174.6 336.9L182.736 344.112L168.864 365.424Z" fill="#FF8B7B"/>
<path d="M162.408 353.616L172.752 360.816C172.84 360.871 172.917 360.943 172.977 361.028C173.038 361.113 173.081 361.208 173.104 361.31C173.128 361.411 173.131 361.516 173.114 361.619C173.096 361.722 173.059 361.82 173.004 361.908L167.82 370.452C167.521 370.882 167.066 371.177 166.552 371.273C166.038 371.37 165.506 371.26 165.072 370.968C161.472 368.412 160.14 367.164 155.832 363.684C151.574 360.338 147.489 356.777 143.592 353.016C140.4 349.704 143.772 346.5 145.464 347.64C149.46 350.352 156.408 353.34 160.428 353.1C161.127 353.045 161.825 353.226 162.408 353.616Z" fill="#263238"/>
<path opacity="0.2" d="M182.724 344.124L174.588 336.9L167.916 347.16L176.256 354.084L182.724 344.124Z" fill="black"/>
<path d="M265.5 237.72C265.5 237.72 210.9 233.988 204.132 252.492C188.736 294.564 168.708 339.192 168.708 339.192L184.8 350.844C184.8 350.844 218.82 298.824 229.2 265.428C250.2 270.528 288.168 274.884 300.396 260.844C310.836 248.844 303.024 237.72 303.024 237.72H265.5Z" fill="#263238"/>
<path opacity="0.3" d="M218.736 270.42C217.464 275.556 215.532 290.268 214.332 300.024C216.984 294.888 219.504 289.68 221.772 284.592L218.736 270.42Z" fill="black"/>
<path d="M183.768 356.112L165.516 341.808L169.248 333.792L189.648 349.38L183.768 356.112Z" fill="#F5520A"/>
<path d="M158.028 352.956C158.874 353.507 159.775 353.97 160.716 354.336C160.763 354.352 160.813 354.355 160.862 354.344C160.91 354.333 160.954 354.308 160.989 354.273C161.024 354.238 161.049 354.194 161.06 354.146C161.071 354.097 161.068 354.047 161.052 354C160.896 353.592 159.528 350.004 158.1 349.656C157.936 349.619 157.766 349.623 157.604 349.669C157.442 349.715 157.295 349.802 157.176 349.92C156.975 350.079 156.82 350.288 156.725 350.526C156.63 350.764 156.6 351.023 156.636 351.276C156.879 351.988 157.374 352.585 158.028 352.956ZM160.344 353.616C158.46 352.8 157.284 351.9 157.152 351.216C157.131 351.049 157.156 350.879 157.224 350.725C157.291 350.571 157.399 350.438 157.536 350.34C157.591 350.28 157.662 350.237 157.74 350.213C157.818 350.19 157.901 350.188 157.98 350.208C158.748 350.4 159.744 352.188 160.344 353.616Z" fill="#F5520A"/>
<path d="M160.656 354.3C160.695 354.311 160.737 354.311 160.776 354.3C160.821 354.305 160.866 354.299 160.908 354.282C160.95 354.265 160.987 354.238 161.016 354.204C161.1 354.108 163.14 351.6 162.84 350.052C162.8 349.854 162.716 349.668 162.593 349.508C162.471 349.348 162.313 349.218 162.132 349.128C161.948 349.012 161.731 348.96 161.514 348.98C161.297 348.999 161.093 349.089 160.932 349.236C160.02 350.088 160.056 352.968 160.596 354.156C160.604 354.208 160.625 354.258 160.656 354.3ZM161.988 349.704C162.075 349.761 162.149 349.835 162.207 349.922C162.265 350.009 162.304 350.106 162.324 350.208C162.504 351.12 161.532 352.692 160.896 353.556C160.56 352.356 160.668 350.22 161.256 349.668C161.376 349.56 161.544 349.452 161.892 349.668L161.988 349.704Z" fill="#F5520A"/>
<path d="M240.6 378.012L230.1 380.112L228.156 351.996L238.824 352.332L240.6 378.012Z" fill="#FF8B7B"/>
<path d="M228.672 376.272L240.672 371.22C240.77 371.172 240.877 371.144 240.986 371.137C241.096 371.131 241.205 371.147 241.308 371.184C241.411 371.221 241.505 371.278 241.586 371.352C241.666 371.427 241.731 371.516 241.776 371.616L246.36 380.832C246.57 381.331 246.575 381.892 246.376 382.394C246.176 382.897 245.787 383.301 245.292 383.52C241.092 385.212 239.004 385.8 233.736 388.032C230.496 389.4 221.736 393.36 217.056 394.524C212.376 395.688 211.32 390.996 213.216 390.084C217.704 387.924 225.144 381.336 227.148 377.7C227.489 377.073 228.024 376.572 228.672 376.272Z" fill="#263238"/>
<path d="M225.684 379.728C226.629 379.296 227.526 378.765 228.36 378.144C228.401 378.112 228.433 378.07 228.452 378.021C228.471 377.972 228.477 377.92 228.468 377.868C228.454 377.818 228.426 377.772 228.388 377.736C228.35 377.7 228.303 377.675 228.252 377.664C227.82 377.568 223.932 376.788 222.84 377.844C222.716 377.964 222.625 378.115 222.576 378.281C222.528 378.448 222.524 378.624 222.564 378.792C222.591 379.052 222.686 379.299 222.84 379.51C222.994 379.721 223.201 379.887 223.44 379.992C224.195 380.185 224.995 380.091 225.684 379.728ZM227.52 378.072C225.78 379.272 224.352 379.788 223.644 379.512C223.486 379.44 223.351 379.325 223.254 379.181C223.156 379.037 223.1 378.87 223.092 378.696C223.069 378.614 223.068 378.528 223.089 378.446C223.11 378.364 223.152 378.288 223.212 378.228C223.8 377.664 225.96 377.808 227.52 378.072Z" fill="#F5520A"/>
<path d="M228.3 378.18C228.341 378.159 228.378 378.13 228.408 378.096C228.428 378.057 228.438 378.014 228.438 377.97C228.438 377.926 228.428 377.883 228.408 377.844C228.408 377.712 227.304 374.544 225.792 373.956C225.598 373.878 225.388 373.848 225.179 373.867C224.971 373.885 224.769 373.953 224.592 374.064C224.382 374.158 224.21 374.321 224.105 374.526C224 374.731 223.969 374.966 224.016 375.192C224.256 376.392 226.788 378.012 228.12 378.192C228.179 378.212 228.244 378.207 228.3 378.18ZM225.024 374.472C225.123 374.43 225.229 374.409 225.336 374.409C225.443 374.409 225.549 374.43 225.648 374.472C226.548 374.82 227.376 376.536 227.784 377.568C226.584 377.172 224.748 375.936 224.592 375.096C224.592 374.94 224.592 374.736 224.916 374.544L225.024 374.472Z" fill="#F5520A"/>
<path opacity="0.2" d="M238.836 352.344L228.156 351.996L229.176 366.684L239.808 366.492L238.836 352.344Z" fill="black"/>
<path d="M292.02 237.72C292.02 237.72 214.02 245.1 216.828 268.584C220.932 302.46 223.932 361.776 223.932 361.776L243.816 362.556C243.816 362.556 251.28 310.404 246.912 275.712C267.108 275.712 310.98 276.78 318.696 266.34C327.852 253.956 323.616 237.72 323.616 237.72H292.02Z" fill="#263238"/>
<path d="M246.012 363.78L222.144 362.592L221.292 352.212L247.464 354.012L246.012 363.78Z" fill="#F5520A"/>
<path d="M274.704 168.948C274.536 171.096 274.344 173.004 274.08 175.008C273.816 177.012 273.564 178.968 273.252 180.948C272.676 184.896 271.884 188.82 270.996 192.768C270.108 196.716 269.016 200.652 267.648 204.624C266.259 208.803 264.437 212.824 262.212 216.624C260.883 218.859 259.27 220.913 257.412 222.732C256.92 223.192 256.403 223.625 255.864 224.028C255.372 224.436 254.88 224.784 254.376 225.132C253.416 225.809 252.419 226.43 251.388 226.992C247.583 229.062 243.558 230.7 239.388 231.876C237.408 232.488 235.416 232.98 233.388 233.424C231.36 233.868 229.428 234.252 227.388 234.564C223.417 235.214 219.409 235.615 215.388 235.764C214.397 235.806 213.424 235.487 212.649 234.867C211.875 234.247 211.351 233.367 211.175 232.39C211 231.414 211.184 230.407 211.694 229.555C212.203 228.704 213.004 228.066 213.948 227.76L214.104 227.7C221.141 225.474 228.044 222.846 234.78 219.828C237.877 218.426 240.841 216.747 243.636 214.812C244.272 214.356 244.836 213.888 245.412 213.42C245.676 213.192 245.952 212.964 246.18 212.724C246.393 212.533 246.593 212.328 246.78 212.112C247.577 211.149 248.261 210.098 248.82 208.98C250.276 206.023 251.445 202.932 252.312 199.752C253.284 196.38 254.124 192.864 254.82 189.288C255.516 185.712 256.14 182.088 256.728 178.416C257.316 174.744 257.76 171 258.168 167.52V167.316C258.468 165.212 259.57 163.305 261.243 161.993C262.916 160.682 265.031 160.067 267.146 160.278C269.261 160.489 271.213 161.508 272.595 163.124C273.976 164.739 274.68 166.826 274.56 168.948H274.704Z" fill="#F5520A"/>
<path d="M215.784 225.6L209.784 225.972L214.584 237.012C214.584 237.012 224.964 236.784 224.748 231.672L222.876 229.272C222.019 228.195 220.945 227.311 219.722 226.678C218.5 226.045 217.158 225.678 215.784 225.6Z" fill="#FF8B7B"/>
<path d="M203.208 226.884L208.392 237.036H214.572L209.772 225.996L203.208 226.884Z" fill="#FF8B7B"/>
<path d="M273.84 151.932L285.444 149.532L294.684 148.2C296.004 147.984 297.346 147.924 298.68 148.02C302.226 148.342 305.589 149.737 308.321 152.021C311.053 154.305 313.023 157.367 313.968 160.8C316.284 169.2 318.372 179.508 319.968 188.64C322.2 201.324 323.352 220.38 323.568 237.708H268.596C267.396 206.328 260.724 186.108 258.456 173.568C257.773 169.782 258.353 165.877 260.107 162.453C261.861 159.029 264.692 156.277 268.164 154.62L273.84 151.932Z" fill="#F5520A"/>
<path d="M268.596 158.832C268.728 163.992 269.796 182.388 275.328 192.84C276.3 183.048 287.928 153.24 287.928 153.24L268.596 158.832Z" fill="#F5F5F5"/>
<path opacity="0.3" d="M321.228 197.256C321.228 197.064 321.228 196.884 321.156 196.68L321.048 195.816C320.988 195.348 320.928 194.88 320.868 194.436L320.688 193.152L320.508 191.952C320.508 191.616 320.4 191.268 320.352 190.944C320.232 190.176 320.112 189.432 319.98 188.7C319.584 186.456 319.164 184.128 318.708 181.788V181.596C318.252 179.196 317.784 176.88 317.28 174.54V174.384C317.076 173.376 316.86 172.392 316.632 171.396L316.38 170.292L315.948 168.384L315.588 166.896L315.516 166.584C315.036 164.616 314.544 162.684 314.04 160.86L305.7 156.468C306.66 160.152 307.572 164.208 308.436 168.36C307.438 168.882 306.517 169.541 305.7 170.316C303.708 172.092 303.78 175.872 305.772 180.348C311.286 193.147 314.339 206.87 314.772 220.8C315.024 226.452 315.18 232.176 315.252 237.732H323.652C323.412 223.968 322.644 209.136 321.228 197.256Z" fill="black"/>
<path d="M281.124 128.808L276.408 136.008L270 145.788C270.825 146.628 271.495 147.607 271.98 148.68C273.18 151.08 274.116 152.808 269.16 156.18C268.104 156.9 268.068 158.04 268.308 159.3C268.596 160.836 269.508 162.444 274.836 161.496C279.985 160.505 284.685 157.899 288.252 154.056C290.028 152.268 289.62 150.936 287.904 149.088C283.056 143.868 281.604 135.528 281.124 128.808Z" fill="#FF8B7B"/>
<path d="M269.796 161.676L273.192 163.812L278.712 161.472C277.411 160.159 275.733 159.282 273.912 158.964C272.325 159.49 270.906 160.426 269.796 161.676Z" fill="#263238"/>
<path d="M273.852 158.964C276.384 160.008 277.656 162.36 278.808 165.072C278.808 165.072 290.94 155.88 291.192 149.82C290.544 147.756 287.508 148.116 287.508 148.116C287.508 148.116 283.812 154.524 273.852 158.964Z" fill="white"/>
<path d="M273.852 158.964C272.669 159.443 271.664 160.277 270.976 161.352C270.288 162.427 269.951 163.689 270.012 164.964C270.012 164.964 264.612 158.628 269.004 153.84C270.196 153.215 271.462 152.743 272.772 152.436C272.772 152.436 271.452 155.076 273.852 158.964Z" fill="white"/>
<path d="M274.26 162.816H272.712C272.208 163.68 271.512 174.936 271.236 180.924C271.978 184.42 273.067 187.833 274.488 191.112C274.483 191.152 274.483 191.192 274.488 191.232C274.572 191.424 274.656 191.604 274.752 191.784C274.92 192.144 275.088 192.504 275.28 192.84C275.834 189.123 276.697 185.458 277.86 181.884C276.276 174.948 274.26 162.816 274.26 162.816Z" fill="#263238"/>
<path opacity="0.2" d="M271.584 143.376L275.52 136.404C275.592 136.572 275.688 136.776 275.784 136.968C276.129 137.838 276.41 138.733 276.624 139.644C277.344 142.752 274.944 147.168 272.292 149.244C272.184 149.052 272.088 148.848 271.98 148.644C271.508 147.636 270.898 146.7 270.168 145.86L270.012 145.74L271.584 143.376Z" fill="black"/>
<path d="M252.408 128.4C251.46 124.14 258.24 118.248 258.24 118.248L250.212 115.452C246.588 118.056 248.94 125.484 252.408 128.4Z" fill="#263238"/>
<path d="M279.456 116.088C281.352 126.744 283.056 132.888 279.048 139.692C277.792 141.926 275.949 143.774 273.718 145.036C271.488 146.298 268.954 146.926 266.392 146.852C263.83 146.778 261.338 146.005 259.184 144.616C257.03 143.227 255.297 141.275 254.172 138.972C249.672 130.188 247.332 114.252 256.488 107.256C258.428 105.692 260.746 104.665 263.208 104.278C265.67 103.892 268.191 104.159 270.517 105.054C272.843 105.948 274.894 107.438 276.463 109.375C278.031 111.312 279.064 113.627 279.456 116.088Z" fill="#FF8B7B"/>
<path d="M279.6 126.864L274.56 125.484V119.004C274.56 119.004 268.188 115.404 269.172 110.904C269.66 108.374 270.346 105.886 271.224 103.464C271.224 103.464 281.328 102.816 284.424 104.112C283.622 104.981 282.751 105.783 281.82 106.512C284.243 108.188 286.321 110.315 287.94 112.776C286.675 113.058 285.492 113.629 284.484 114.444C284.484 114.444 285.804 123.336 279.6 126.864Z" fill="#263238"/>
<path d="M268.008 96.552C271.716 98.88 269.568 103.152 269.568 103.152L279.492 103.356C278.964 100.224 270.36 96.396 268.008 96.552Z" fill="#263238"/>
<path d="M271.884 113.088C271.176 115.08 263.136 117.528 255.804 117.768C252.149 117.689 248.533 117.008 245.1 115.752C246.135 114.689 247.355 113.823 248.7 113.196C244.272 112.104 238.668 108.216 237.12 105.048C240.353 103.893 243.846 103.668 247.2 104.4C246.102 103.473 245.2 102.337 244.547 101.057C243.894 99.7777 243.503 98.3807 243.396 96.948C243.396 96.948 262.164 104.388 269.388 101.304C277.236 97.944 283.2 104.244 278.04 109.044C272.88 113.844 271.884 113.088 271.884 113.088Z" fill="#263238"/>
<path d="M285.192 123.804C285.294 126.154 284.53 128.46 283.044 130.284C281.1 132.6 278.076 130.752 277.38 127.884C276.756 125.28 277.572 121.26 280.128 120.012C282.684 118.764 285.06 120.888 285.192 123.804Z" fill="#FF8B7B"/>
<path d="M263.232 126C263.496 126.84 263.232 127.668 262.752 127.872C262.272 128.076 261.552 127.548 261.276 126.672C261 125.796 261.276 125.004 261.756 124.8C262.236 124.596 262.956 125.112 263.232 126Z" fill="#263238"/>
<path d="M253.932 129.36C254.196 130.188 253.932 131.028 253.452 131.22C252.972 131.412 252.252 130.908 251.976 130.02C251.7 129.132 251.976 128.352 252.456 128.16C252.936 127.968 253.656 128.52 253.932 129.36Z" fill="#263238"/>
<path d="M257.112 128.916C257.151 131.399 256.861 133.877 256.248 136.284C256.857 136.414 257.487 136.406 258.093 136.263C258.699 136.12 259.265 135.844 259.752 135.456L257.112 128.916Z" fill="#A02724"/>
<path d="M262.8 138.66C263.764 138.337 264.653 137.824 265.415 137.153C266.178 136.481 266.798 135.663 267.24 134.748C267.264 134.684 267.262 134.614 267.236 134.551C267.209 134.488 267.159 134.439 267.096 134.412C267.065 134.398 267.032 134.391 266.999 134.39C266.965 134.389 266.931 134.395 266.9 134.407C266.869 134.419 266.84 134.438 266.816 134.461C266.792 134.485 266.773 134.513 266.76 134.544C266.273 135.536 265.564 136.403 264.688 137.078C263.812 137.752 262.792 138.215 261.708 138.432C261.674 138.439 261.643 138.453 261.615 138.472C261.586 138.492 261.563 138.517 261.545 138.547C261.527 138.576 261.515 138.608 261.51 138.642C261.505 138.676 261.507 138.711 261.516 138.744C261.53 138.809 261.57 138.866 261.626 138.902C261.683 138.938 261.751 138.95 261.816 138.936C262.15 138.865 262.478 138.773 262.8 138.66Z" fill="#263238"/>
<path d="M265.296 121.08C265.37 121.036 265.432 120.974 265.476 120.9C265.514 120.844 265.54 120.782 265.554 120.716C265.567 120.65 265.567 120.582 265.553 120.516C265.54 120.45 265.514 120.387 265.475 120.331C265.437 120.276 265.389 120.228 265.332 120.192C264.657 119.741 263.883 119.461 263.076 119.377C262.268 119.294 261.453 119.409 260.7 119.712C260.639 119.741 260.583 119.782 260.538 119.833C260.492 119.883 260.457 119.942 260.434 120.006C260.411 120.07 260.401 120.138 260.405 120.206C260.408 120.274 260.425 120.341 260.454 120.402C260.483 120.463 260.524 120.519 260.575 120.564C260.625 120.61 260.684 120.645 260.748 120.668C260.812 120.691 260.88 120.701 260.948 120.697C261.016 120.694 261.083 120.677 261.144 120.648C261.732 120.42 262.367 120.338 262.994 120.409C263.621 120.48 264.222 120.702 264.744 121.056C264.824 121.112 264.919 121.144 265.016 121.148C265.114 121.152 265.211 121.129 265.296 121.08Z" fill="#263238"/>
<path d="M252.084 124.308C252.107 124.226 252.107 124.138 252.084 124.056C252.031 123.931 251.931 123.831 251.805 123.78C251.679 123.728 251.538 123.728 251.412 123.78C250.656 124.073 249.985 124.549 249.457 125.165C248.93 125.78 248.562 126.516 248.388 127.308C248.385 127.432 248.427 127.554 248.506 127.65C248.585 127.745 248.696 127.81 248.819 127.83C248.942 127.85 249.068 127.826 249.174 127.761C249.28 127.696 249.359 127.595 249.396 127.476C249.545 126.859 249.842 126.287 250.26 125.808C250.677 125.33 251.204 124.959 251.796 124.728C251.876 124.689 251.945 124.63 251.995 124.556C252.046 124.482 252.076 124.397 252.084 124.308Z" fill="#263238"/>
<path d="M311.412 155.64C312.732 157.272 313.884 158.748 315.012 160.32C316.14 161.892 317.316 163.452 318.42 165.048C320.664 168.228 322.752 171.528 324.792 174.888C326.832 178.248 328.728 181.752 330.432 185.46C332.282 189.307 333.749 193.326 334.812 197.46C335.409 199.863 335.723 202.328 335.748 204.804C335.718 207.28 335.363 209.741 334.692 212.124C333.497 216.273 331.754 220.244 329.508 223.932C328.476 225.696 327.36 227.388 326.196 229.02C325.032 230.652 323.796 232.236 322.596 233.76C320.091 236.825 317.368 239.704 314.448 242.376C313.717 243.027 312.779 243.397 311.8 243.418C310.822 243.44 309.867 243.112 309.109 242.493C308.35 241.875 307.837 241.006 307.661 240.044C307.485 239.081 307.657 238.087 308.148 237.24L308.256 237.06C311.982 231.014 315.24 224.692 318 218.148C319.238 215.199 320.14 212.119 320.688 208.968C320.889 207.702 320.941 206.418 320.844 205.14C320.7 203.875 320.426 202.629 320.028 201.42C318.99 198.352 317.685 195.38 316.128 192.54C314.532 189.528 312.732 186.54 310.812 183.504C308.892 180.468 306.876 177.504 304.812 174.588L301.656 170.196C300.6 168.768 299.496 167.244 298.5 165.936L298.428 165.84C297.075 164.125 296.46 161.942 296.716 159.773C296.973 157.603 298.081 155.625 299.796 154.272C301.511 152.919 303.694 152.304 305.863 152.56C308.033 152.817 310.011 153.925 311.364 155.64H311.412Z" fill="#F5520A"/>
<path d="M197.076 244.164L299.172 239.544C299.494 239.523 299.817 239.567 300.122 239.674C300.426 239.78 300.706 239.947 300.945 240.165C301.184 240.382 301.376 240.645 301.51 240.938C301.645 241.232 301.719 241.549 301.728 241.872L194.748 246.672C194.734 246.354 194.783 246.036 194.892 245.737C195.002 245.438 195.17 245.164 195.387 244.93C195.603 244.697 195.864 244.509 196.154 244.377C196.444 244.246 196.758 244.173 197.076 244.164Z" fill="#F5520A"/>
<g opacity="0.6">
<path d="M197.076 244.164L299.172 239.544C299.494 239.523 299.817 239.567 300.122 239.674C300.426 239.78 300.706 239.947 300.945 240.165C301.184 240.382 301.376 240.645 301.51 240.938C301.645 241.232 301.719 241.549 301.728 241.872L194.748 246.672C194.734 246.354 194.783 246.036 194.892 245.737C195.002 245.438 195.17 245.164 195.387 244.93C195.603 244.697 195.864 244.509 196.154 244.377C196.444 244.246 196.758 244.173 197.076 244.164Z" fill="white"/>
</g>
<path d="M180.828 196.8L253.464 193.512C253.93 193.518 254.383 193.668 254.761 193.941C255.138 194.213 255.423 194.596 255.576 195.036L269.52 239.28C269.595 239.463 269.624 239.661 269.604 239.858C269.584 240.054 269.516 240.243 269.405 240.407C269.295 240.57 269.146 240.705 268.971 240.797C268.796 240.889 268.602 240.937 268.404 240.936L195.768 244.224C195.305 244.22 194.854 244.072 194.478 243.801C194.102 243.53 193.819 243.15 193.668 242.712L179.724 198.456C179.649 198.274 179.62 198.077 179.64 197.881C179.659 197.686 179.726 197.498 179.836 197.334C179.945 197.171 180.092 197.037 180.265 196.943C180.438 196.85 180.631 196.801 180.828 196.8Z" fill="#F5520A"/>
<path opacity="0.6" d="M180.828 196.8L253.464 193.512C253.93 193.518 254.383 193.668 254.761 193.941C255.138 194.213 255.423 194.596 255.576 195.036L269.52 239.28C269.595 239.463 269.624 239.661 269.604 239.858C269.584 240.054 269.516 240.243 269.405 240.407C269.295 240.57 269.146 240.705 268.971 240.797C268.796 240.889 268.602 240.937 268.404 240.936L195.768 244.224C195.305 244.22 194.854 244.072 194.478 243.801C194.102 243.53 193.819 243.15 193.668 242.712L179.724 198.456C179.649 198.274 179.62 198.077 179.64 197.881C179.659 197.686 179.726 197.498 179.836 197.334C179.945 197.171 180.092 197.037 180.265 196.943C180.438 196.85 180.631 196.801 180.828 196.8Z" fill="white"/>
<path opacity="0.5" d="M255.6 195.024L269.544 239.268C269.622 239.451 269.652 239.651 269.634 239.849C269.615 240.047 269.547 240.238 269.436 240.403C269.326 240.569 269.176 240.704 269 240.797C268.823 240.89 268.627 240.938 268.428 240.936L253.488 193.5C253.954 193.506 254.407 193.656 254.785 193.929C255.162 194.201 255.447 194.584 255.6 195.024Z" fill="#F5520A"/>
<path opacity="0.5" d="M272.328 240.756L299.172 239.556C299.494 239.535 299.817 239.579 300.122 239.686C300.426 239.792 300.706 239.959 300.945 240.177C301.184 240.394 301.376 240.657 301.511 240.95C301.645 241.244 301.719 241.561 301.728 241.884L270 243.312C269.979 242.99 270.023 242.667 270.13 242.362C270.236 242.058 270.403 241.778 270.621 241.539C270.838 241.3 271.101 241.108 271.394 240.974C271.688 240.839 272.005 240.765 272.328 240.756Z" fill="#F5520A"/>
<path d="M306.24 236.736L299.376 237.732L306.408 247.512C306.408 247.512 317.58 245.724 316.284 240.768L313.884 238.776C312.823 237.92 311.595 237.297 310.278 236.945C308.962 236.594 307.586 236.523 306.24 236.736Z" fill="#FF8B7B"/>
<path d="M290.976 240.66L299.58 248.16L306.408 247.512L299.376 237.732L290.976 240.66Z" fill="#FF8B7B"/>
</svg>
