<svg width="1175" height="734" viewBox="0 0 1175 734" fill="none" xmlns="http://www.w3.org/2000/svg">
<path d="M998.73 657H176.268C160.024 656.988 144.451 652.722 132.965 645.14C121.479 637.557 115.018 627.277 115 616.554V142.444C115.019 131.722 121.48 121.442 132.966 113.86C144.452 106.278 160.024 102.012 176.268 102H998.73C1014.97 102.012 1030.55 106.277 1042.03 113.859C1053.52 121.441 1059.98 131.721 1060 142.444V616.554C1059.98 627.277 1053.52 637.558 1042.03 645.14C1030.55 652.723 1014.97 656.988 998.73 657Z" fill="white"/>
<path d="M996.99 657H177.009C160.303 656.988 144.288 652.6 132.475 644.801C120.663 637.001 114.018 626.426 114 615.396V142.603C114.019 131.573 120.664 120.998 132.476 113.199C144.288 105.4 160.304 101.012 177.009 101H996.99C1013.7 101.012 1029.71 105.399 1041.52 113.199C1053.34 120.998 1059.98 131.573 1060 142.604V615.396C1059.98 626.426 1053.34 637.001 1041.52 644.801C1029.71 652.6 1013.7 656.988 996.99 657ZM177.009 103.541C161.324 103.553 146.288 107.672 135.197 114.995C124.106 122.318 117.868 132.247 117.85 142.603V615.396C117.868 625.752 124.106 635.681 135.196 643.004C146.287 650.327 161.324 654.447 177.009 654.459H996.99C1012.68 654.447 1027.71 650.328 1038.81 643.005C1049.9 635.682 1056.14 625.752 1056.15 615.396V142.603C1056.14 132.246 1049.9 122.318 1038.81 114.995C1027.71 107.672 1012.68 103.553 996.992 103.541H177.009Z" fill="#090814"/>
<path d="M42.441 469.135C38.1436 469.12 33.9851 467.611 30.6787 464.866C27.3722 462.121 25.1238 458.311 24.319 454.09L1.33302 333.275C0.418691 328.563 1.37873 323.682 4.00888 319.667C6.63903 315.653 10.7317 312.824 15.416 311.782L118.386 288.458C120.784 287.914 123.266 287.854 125.688 288.281C128.109 288.709 130.421 289.615 132.489 290.946C134.556 292.278 136.337 294.008 137.727 296.036C139.117 298.064 140.089 300.349 140.586 302.758L165.638 424.122C166.608 428.893 165.663 433.854 163.007 437.935C160.352 442.016 156.199 444.89 151.444 445.937L46.404 468.707C45.102 468.99 43.7735 469.133 42.441 469.135Z" fill="#F2F2F2"/>
<path d="M34.527 360.306C33.2035 360.304 31.9281 359.809 30.9506 358.917C29.9732 358.024 29.3642 356.799 29.2429 355.481C29.1217 354.163 29.4969 352.847 30.2951 351.792C31.0933 350.736 32.2569 350.016 33.558 349.774L116.804 334.222C117.49 334.094 118.194 334.102 118.876 334.246C119.558 334.39 120.205 334.667 120.781 335.061C121.356 335.455 121.848 335.959 122.229 336.543C122.609 337.128 122.871 337.781 122.999 338.467C123.127 339.152 123.119 339.856 122.975 340.538C122.831 341.221 122.554 341.868 122.16 342.443C121.765 343.019 121.262 343.511 120.677 343.891C120.093 344.272 119.44 344.534 118.754 344.662L35.508 360.214C35.1846 360.275 34.8562 360.306 34.527 360.306Z" fill="#F5520A"/>
<path d="M42.115 392.168C40.8139 392.167 39.5582 391.688 38.5865 390.823C37.6147 389.958 36.9944 388.766 36.8433 387.473C36.6922 386.181 37.0208 384.878 37.7668 383.812C38.5127 382.746 39.6241 381.991 40.89 381.69L119.253 363.031C119.933 362.864 120.64 362.834 121.332 362.942C122.023 363.049 122.687 363.292 123.285 363.658C123.882 364.023 124.402 364.502 124.813 365.069C125.224 365.636 125.52 366.278 125.682 366.959C125.844 367.641 125.87 368.347 125.758 369.038C125.646 369.73 125.399 370.392 125.03 370.987C124.661 371.582 124.178 372.099 123.609 372.507C123.039 372.914 122.395 373.206 121.713 373.364L43.349 392.022C42.9447 392.118 42.5306 392.167 42.115 392.168Z" fill="#F5520A"/>
<path d="M47.423 422.996C46.1112 422.993 44.8468 422.506 43.8731 421.627C42.8994 420.748 42.2855 419.54 42.1495 418.235C42.0135 416.93 42.3651 415.622 43.1366 414.561C43.9081 413.5 45.0449 412.762 46.328 412.49L99.79 401.168C101.161 400.894 102.585 401.171 103.753 401.939C104.921 402.708 105.739 403.907 106.029 405.275C106.319 406.643 106.057 408.07 105.301 409.246C104.544 410.423 103.355 411.253 101.99 411.558L48.53 422.879C48.166 422.956 47.795 422.995 47.423 422.996Z" fill="#F5520A"/>
<path d="M966.397 733.426C963.243 733.415 960.19 732.313 957.756 730.306C955.323 728.3 953.659 725.512 953.047 722.418L929.247 599.661C928.871 597.717 928.925 595.715 929.403 593.793C929.881 591.872 930.773 590.079 932.016 588.538C933.26 586.997 934.824 585.746 936.601 584.873C938.378 584 940.324 583.525 942.303 583.482L1057.31 581.005C1060.53 580.918 1063.68 581.985 1066.18 584.014C1068.69 586.042 1070.38 588.898 1070.96 592.067L1093.52 711.113C1093.88 713.017 1093.83 714.976 1093.37 716.859C1092.91 718.743 1092.06 720.506 1090.86 722.031C1089.67 723.557 1088.16 724.809 1086.44 725.705C1084.72 726.6 1082.83 727.118 1080.9 727.223L967.133 733.405C966.887 733.418 966.64 733.426 966.397 733.426Z" fill="#F2F2F2"/>
<path d="M1039.91 619.885C1038.49 619.069 1036.8 618.846 1035.21 619.262C1033.62 619.678 1032.26 620.701 1031.42 622.111L1010.76 663.04C1005.15 654.334 998.08 646.665 989.857 640.371C987.202 638.32 982.903 639.971 981.364 642.597C979.489 645.803 980.929 649.038 983.59 651.09C993.134 658.631 1000.69 668.388 1005.61 679.514C1007.51 683.702 1014.35 683.438 1016.33 679.514L1042.14 628.38C1042.93 626.95 1043.14 625.269 1042.73 623.687C1042.31 622.106 1041.3 620.745 1039.91 619.887L1039.91 619.885Z" fill="#F5520A"/>
<path d="M1054.66 174.628C1053.71 174.628 1052.75 174.553 1051.81 174.404L945.627 157.746C943.189 157.363 940.852 156.496 938.755 155.196C936.657 153.896 934.84 152.189 933.412 150.176C931.984 148.163 930.973 145.885 930.439 143.476C929.904 141.066 929.858 138.574 930.301 136.146L952.452 15.1725C953.302 10.4498 955.959 6.24444 959.86 3.44974C963.761 0.655046 968.597 -0.508793 973.342 0.205459L1077.79 15.6055C1080.22 15.9648 1082.56 16.8052 1084.66 18.0775C1086.77 19.3498 1088.6 21.0285 1090.04 23.0156C1091.49 25.0026 1092.53 27.2582 1093.09 29.6505C1093.66 32.0427 1093.74 34.5237 1093.34 36.9485L1072.91 159.18C1072.18 163.493 1069.95 167.407 1066.61 170.233C1063.27 173.06 1059.04 174.616 1054.66 174.628Z" fill="#F2F2F2"/>
<path d="M1058.84 68.2475C1058.51 68.2474 1058.18 68.2166 1057.86 68.1555L974.606 52.6265C973.921 52.4986 973.267 52.237 972.683 51.8566C972.098 51.4761 971.594 50.9843 971.2 50.4092C970.404 49.2477 970.101 47.8174 970.36 46.433C970.618 45.0485 971.415 43.8234 972.577 43.027C973.738 42.2306 975.169 41.9283 976.553 42.1865L1059.81 57.7155C1061.11 57.9581 1062.27 58.6777 1063.07 59.7333C1063.87 60.789 1064.24 62.1046 1064.12 63.4225C1064 64.7404 1063.39 65.9656 1062.41 66.8581C1061.44 67.7506 1060.16 68.2461 1058.84 68.2475Z" fill="#F5520A"/>
<path d="M1050.98 96.0395C1050.74 96.04 1050.5 96.0236 1050.26 95.9905L970.441 85.1205C969.045 84.9303 967.783 84.1936 966.93 83.0724C966.078 81.9512 965.706 80.5374 965.896 79.142C966.086 77.7465 966.823 76.4838 967.944 75.6315C969.066 74.7793 970.479 74.4073 971.875 74.5975L1051.69 85.4675C1053.03 85.6481 1054.24 86.3287 1055.09 87.3717C1055.95 88.4146 1056.37 89.742 1056.28 91.0853C1056.19 92.4286 1055.59 93.6874 1054.61 94.6072C1053.62 95.5269 1052.33 96.0389 1050.98 96.0395Z" fill="#F5520A"/>
<path d="M1018.94 124.568C1018.65 124.568 1018.37 124.544 1018.09 124.498L964.14 115.768C962.75 115.543 961.506 114.775 960.682 113.632C959.859 112.49 959.522 111.067 959.748 109.676C959.973 108.286 960.742 107.042 961.884 106.219C963.027 105.395 964.45 105.059 965.84 105.284L1019.79 114.014C1021.1 114.227 1022.29 114.928 1023.12 115.978C1023.94 117.028 1024.34 118.35 1024.23 119.68C1024.13 121.011 1023.52 122.252 1022.54 123.158C1021.56 124.064 1020.28 124.567 1018.94 124.568H1018.94Z" fill="#F5520A"/>
</svg>
