<svg width="1094" height="734" viewBox="0 0 1094 734" fill="none" xmlns="http://www.w3.org/2000/svg">
<g clip-path="url(#clip0_2369_353)">
<path d="M998.73 657H176.268C160.024 656.988 144.451 652.722 132.965 645.14C121.479 637.557 115.018 627.277 115 616.554V142.444C115.019 131.722 121.48 121.442 132.966 113.86C144.452 106.278 160.024 102.012 176.268 102H998.73C1014.97 102.012 1030.55 106.277 1042.03 113.859C1053.52 121.441 1059.98 131.721 1060 142.444V616.554C1059.98 627.277 1053.52 637.558 1042.03 645.14C1030.55 652.723 1014.97 656.988 998.73 657Z" fill="white"/>
<path d="M996.99 657H177.009C160.303 656.988 144.288 652.6 132.475 644.801C120.663 637.001 114.018 626.426 114 615.396V142.603C114.019 131.573 120.664 120.998 132.476 113.199C144.288 105.4 160.304 101.012 177.009 101H996.99C1013.7 101.012 1029.71 105.399 1041.52 113.199C1053.34 120.998 1059.98 131.573 1060 142.604V615.396C1059.98 626.426 1053.34 637.001 1041.52 644.801C1029.71 652.6 1013.7 656.988 996.99 657ZM177.009 103.541C161.324 103.553 146.288 107.672 135.197 114.995C124.106 122.318 117.868 132.247 117.85 142.603V615.396C117.868 625.752 124.106 635.681 135.196 643.004C146.287 650.327 161.324 654.447 177.009 654.459H996.99C1012.68 654.447 1027.71 650.328 1038.81 643.005C1049.9 635.682 1056.14 625.752 1056.15 615.396V142.603C1056.14 132.246 1049.9 122.318 1038.81 114.995C1027.71 107.672 1012.68 103.553 996.992 103.541H177.009Z" fill="#090814"/>
<path d="M42.441 469.135C38.1436 469.12 33.9851 467.611 30.6787 464.866C27.3722 462.121 25.1238 458.311 24.319 454.09L1.33302 333.275C0.418691 328.563 1.37873 323.682 4.00888 319.667C6.63903 315.653 10.7317 312.824 15.416 311.782L118.386 288.458C120.784 287.914 123.266 287.854 125.688 288.281C128.109 288.709 130.421 289.615 132.489 290.946C134.556 292.278 136.337 294.008 137.727 296.036C139.117 298.064 140.089 300.349 140.586 302.758L165.638 424.122C166.608 428.893 165.663 433.854 163.007 437.935C160.352 442.016 156.199 444.89 151.444 445.937L46.404 468.707C45.102 468.99 43.7735 469.133 42.441 469.135Z" fill="#F2F2F2"/>
<path d="M34.527 360.306C33.2035 360.304 31.9281 359.809 30.9506 358.917C29.9732 358.024 29.3642 356.799 29.2429 355.481C29.1217 354.163 29.4969 352.847 30.2951 351.792C31.0933 350.736 32.2569 350.016 33.558 349.774L116.804 334.222C117.49 334.094 118.194 334.102 118.876 334.246C119.558 334.39 120.205 334.667 120.781 335.061C121.356 335.455 121.848 335.959 122.229 336.543C122.609 337.128 122.871 337.781 122.999 338.467C123.127 339.152 123.119 339.856 122.975 340.538C122.831 341.221 122.554 341.868 122.16 342.443C121.765 343.019 121.262 343.511 120.677 343.891C120.093 344.272 119.44 344.534 118.754 344.662L35.508 360.214C35.1846 360.275 34.8562 360.306 34.527 360.306Z" fill="#F5520A"/>
<path d="M42.115 392.168C40.8139 392.167 39.5582 391.688 38.5865 390.823C37.6147 389.958 36.9944 388.766 36.8433 387.473C36.6922 386.181 37.0208 384.878 37.7668 383.812C38.5127 382.746 39.6241 381.991 40.89 381.69L119.253 363.031C119.933 362.864 120.64 362.834 121.332 362.942C122.023 363.049 122.687 363.292 123.285 363.658C123.882 364.023 124.402 364.502 124.813 365.069C125.224 365.636 125.52 366.278 125.682 366.959C125.844 367.641 125.87 368.347 125.758 369.038C125.646 369.73 125.399 370.392 125.03 370.987C124.661 371.582 124.178 372.099 123.609 372.507C123.039 372.914 122.395 373.206 121.713 373.364L43.349 392.022C42.9447 392.118 42.5306 392.167 42.115 392.168Z" fill="#F5520A"/>
<path d="M47.423 422.996C46.1112 422.993 44.8468 422.506 43.8731 421.627C42.8994 420.748 42.2855 419.54 42.1495 418.235C42.0135 416.93 42.3651 415.622 43.1366 414.561C43.9081 413.5 45.0449 412.762 46.328 412.49L99.79 401.168C101.161 400.894 102.585 401.171 103.753 401.939C104.921 402.708 105.739 403.907 106.029 405.275C106.319 406.643 106.057 408.07 105.301 409.246C104.544 410.423 103.355 411.253 101.99 411.558L48.53 422.879C48.166 422.956 47.795 422.995 47.423 422.996Z" fill="#F5520A"/>
<path d="M1048.66 175.622C1047.71 175.621 1046.75 175.546 1045.81 175.398L939.627 158.74C937.189 158.357 934.852 157.49 932.755 156.189C930.657 154.889 928.84 153.183 927.412 151.17C925.984 149.157 924.973 146.879 924.439 144.469C923.904 142.06 923.858 139.568 924.301 137.14L946.452 16.166C947.302 11.4433 949.959 7.23797 953.86 4.44327C957.761 1.64858 962.597 0.484738 967.342 1.19899L1071.79 16.599C1074.22 16.9583 1076.56 17.7987 1078.66 19.071C1080.77 20.3433 1082.6 22.022 1084.04 24.0091C1085.49 25.9962 1086.53 28.2517 1087.09 30.644C1087.66 33.0363 1087.74 35.5172 1087.34 37.942L1066.91 160.174C1066.18 164.486 1063.95 168.401 1060.61 171.227C1057.27 174.053 1053.04 175.61 1048.66 175.622Z" fill="#F2F2F2"/>
<path d="M1052.84 69.241C1052.51 69.2409 1052.18 69.2101 1051.86 69.149L968.606 53.62C967.921 53.4921 967.267 53.2305 966.683 52.8501C966.098 52.4697 965.594 51.9778 965.2 51.4027C964.404 50.2412 964.101 48.8109 964.36 47.4265C964.618 46.0421 965.415 44.8169 966.577 44.0205C967.738 43.2241 969.169 42.9218 970.553 43.18L1053.81 58.709C1055.11 58.9516 1056.27 59.6712 1057.07 60.7269C1057.87 61.7825 1058.24 63.0982 1058.12 64.4161C1058 65.734 1057.39 66.9592 1056.41 67.8517C1055.44 68.7441 1054.16 69.2396 1052.84 69.241Z" fill="#F5520A"/>
<path d="M1044.98 97.033C1044.74 97.0335 1044.5 97.0172 1044.26 96.984L964.441 86.114C963.045 85.9238 961.783 85.1871 960.93 84.066C960.078 82.9448 959.706 81.5309 959.896 80.1355C960.086 78.7401 960.823 77.4773 961.944 76.6251C963.066 75.7728 964.479 75.4008 965.875 75.591L1045.69 86.461C1047.03 86.6416 1048.24 87.3223 1049.09 88.3652C1049.95 89.4082 1050.37 90.7355 1050.28 92.0788C1050.19 93.4221 1049.59 94.681 1048.61 95.6007C1047.62 96.5204 1046.33 97.0324 1044.98 97.033Z" fill="#F5520A"/>
<path d="M1012.94 125.562C1012.65 125.561 1012.37 125.538 1012.09 125.492L958.14 116.762C956.75 116.537 955.506 115.768 954.682 114.626C953.859 113.483 953.522 112.06 953.748 110.67C953.973 109.28 954.742 108.036 955.884 107.212C957.027 106.389 958.45 106.053 959.84 106.278L1013.79 115.008C1015.1 115.221 1016.29 115.922 1017.12 116.972C1017.94 118.022 1018.34 119.343 1018.23 120.674C1018.13 122.004 1017.52 123.246 1016.54 124.152C1015.56 125.057 1014.28 125.561 1012.94 125.562H1012.94Z" fill="#F5520A"/>
<path d="M966.397 733.426C963.243 733.415 960.19 732.313 957.756 730.306C955.323 728.3 953.659 725.512 953.047 722.418L929.247 599.661C928.871 597.717 928.925 595.715 929.403 593.793C929.881 591.872 930.773 590.079 932.016 588.538C933.26 586.997 934.824 585.746 936.601 584.873C938.378 584 940.324 583.525 942.303 583.482L1057.31 581.005C1060.53 580.918 1063.68 581.985 1066.18 584.014C1068.69 586.042 1070.38 588.898 1070.96 592.067L1093.52 711.113C1093.88 713.017 1093.83 714.976 1093.37 716.859C1092.91 718.743 1092.06 720.506 1090.86 722.031C1089.67 723.557 1088.16 724.809 1086.44 725.705C1084.72 726.6 1082.83 727.118 1080.9 727.223L967.133 733.405C966.887 733.418 966.64 733.426 966.397 733.426Z" fill="#F2F2F2"/>
<path d="M1039.91 619.885C1038.49 619.069 1036.8 618.846 1035.21 619.262C1033.62 619.678 1032.26 620.701 1031.42 622.111L1010.76 663.04C1005.15 654.334 998.08 646.665 989.857 640.371C987.202 638.32 982.903 639.971 981.364 642.597C979.489 645.803 980.929 649.038 983.59 651.09C993.134 658.631 1000.69 668.388 1005.61 679.514C1007.51 683.702 1014.35 683.438 1016.33 679.514L1042.14 628.38C1042.93 626.95 1043.14 625.269 1042.73 623.687C1042.31 622.106 1041.3 620.745 1039.91 619.887L1039.91 619.885Z" fill="#F5520A"/>
</g>
<defs>
<clipPath id="clip0_2369_353">
<rect width="1094" height="734" fill="white"/>
</clipPath>
</defs>
</svg>
